<?xml version="1.0" encoding="UTF-8" ?>
<!DOCTYPE svg PUBLIC "-//W3C//DTD SVG 1.1//EN" "http://www.w3.org/Graphics/SVG/1.1/DTD/svg11.dtd">
<svg width="500pt" height="462pt" viewBox="0 0 500 462" version="1.1" xmlns="http://www.w3.org/2000/svg">
<g id="#fdfffdff">
<path fill="#fdfffd" opacity="1.00" d=" M 276.26 32.35 C 288.06 24.00 305.62 20.80 317.74 30.33 C 318.18 31.23 318.86 31.87 319.79 32.24 C 323.03 34.19 325.84 36.93 327.74 40.22 C 328.07 41.15 328.67 41.87 329.54 42.36 C 331.78 44.59 333.50 47.31 334.82 50.17 C 335.11 51.14 335.72 51.84 336.66 52.26 C 338.63 53.62 340.37 55.33 341.74 57.30 C 342.16 58.21 342.84 58.85 343.79 59.20 C 345.32 60.07 346.79 61.11 348.00 62.40 C 348.83 63.55 349.69 64.68 350.56 65.81 C 352.58 73.22 354.59 80.78 355.02 88.50 C 354.98 89.74 354.99 90.99 355.04 92.24 C 355.04 95.70 355.07 99.18 355.02 102.65 C 354.98 103.63 355.00 104.60 355.10 105.57 C 355.61 114.44 352.74 122.96 350.57 131.42 C 348.45 138.36 345.58 145.28 341.05 151.00 C 339.06 153.05 337.05 155.07 334.98 157.03 C 330.98 160.33 326.03 163.22 320.67 162.95 C 319.67 162.71 318.71 162.83 317.80 163.31 L 316.68 163.36 C 314.84 163.32 313.03 163.31 311.25 163.33 L 310.20 163.27 C 309.28 162.81 308.32 162.70 307.33 162.96 C 295.60 162.67 284.96 156.41 276.13 149.16 C 274.31 147.45 272.54 145.69 270.82 143.89 C 260.36 131.19 256.34 114.33 255.11 98.28 C 255.09 97.68 255.05 96.47 255.03 95.87 C 254.91 94.62 254.67 92.12 254.55 90.87 C 254.54 89.79 254.51 87.62 254.50 86.54 C 255.13 85.66 255.33 84.69 255.10 83.64 C 255.09 82.39 255.05 81.14 255.00 79.90 C 256.07 65.99 260.16 51.70 268.46 40.33 C 269.28 39.77 269.84 39.02 270.11 38.06 C 270.41 37.87 271.00 37.48 271.30 37.28 C 272.26 36.92 272.92 36.26 273.29 35.30 C 273.49 35.01 273.89 34.42 274.09 34.13 C 275.03 33.80 275.75 33.21 276.26 32.35 M 280.38 94.66 C 278.83 93.14 276.13 95.80 277.63 97.37 C 273.11 103.49 275.94 113.95 283.20 116.84 C 282.97 118.59 283.70 119.18 285.37 118.60 C 286.12 119.85 286.98 121.03 287.81 122.24 C 290.92 120.93 294.04 119.61 296.99 117.95 C 304.78 115.23 304.29 105.32 304.36 98.64 C 304.35 95.43 300.91 94.29 298.39 93.51 C 292.70 91.94 285.38 90.69 280.38 94.66 Z" />
<path fill="#fdfffd" opacity="1.00" d=" M 413.61 46.61 C 423.80 44.71 434.84 47.22 443.07 53.51 C 444.17 54.67 445.28 55.81 446.40 56.96 C 450.00 63.77 453.05 71.14 453.84 78.87 C 453.85 79.97 453.92 81.08 454.04 82.18 C 454.04 83.80 454.03 87.04 454.03 88.66 C 454.00 89.30 453.95 90.56 453.93 91.19 C 454.17 101.06 449.88 110.18 445.94 118.98 C 443.15 123.99 441.23 129.95 436.72 133.75 C 435.77 134.16 435.14 134.84 434.81 135.81 C 434.30 136.70 433.64 137.46 432.83 138.09 C 431.79 138.86 430.83 139.72 429.99 140.70 C 427.26 143.42 424.26 145.97 420.96 147.96 C 419.99 148.23 419.25 148.81 418.75 149.68 C 416.58 152.29 414.23 154.73 411.95 157.24 C 409.58 153.71 407.18 150.19 404.75 146.70 C 403.87 145.31 402.62 144.22 401.31 143.26 C 400.24 142.43 399.17 141.58 398.27 140.58 C 397.75 139.70 397.00 139.14 396.03 138.90 C 386.03 133.75 375.80 128.84 364.67 126.60 C 364.93 124.85 365.45 121.36 365.71 119.62 C 366.02 118.27 366.18 116.89 366.04 115.52 C 365.88 108.52 365.74 101.52 366.02 94.53 C 366.16 93.15 365.97 91.77 365.70 90.42 C 365.72 83.99 362.60 75.74 367.29 70.23 C 368.18 69.79 368.82 69.11 369.20 68.18 C 379.86 54.78 397.37 49.40 413.61 46.61 M 435.92 80.86 C 432.74 81.68 429.49 82.30 426.44 83.55 C 424.69 83.03 424.01 83.66 424.39 85.45 C 421.16 88.58 419.06 92.67 416.45 96.29 C 417.67 97.50 418.85 98.77 420.22 99.82 C 419.63 101.56 420.24 102.27 422.04 101.95 C 424.88 106.06 430.57 106.06 434.97 106.41 C 435.21 105.94 435.67 105.00 435.90 104.53 C 437.82 105.72 440.02 102.44 438.45 100.95 L 439.01 100.22 C 439.10 96.76 439.15 93.30 439.15 89.84 C 439.00 87.13 438.35 84.47 437.90 81.80 C 439.23 80.46 436.07 78.95 435.92 80.86 Z" />
</g>
<g id="#575d4fff">
<path fill="#575d4f" opacity="1.00" d=" M 286.90 13.83 C 287.62 12.70 288.62 12.28 289.89 12.57 C 289.40 13.94 288.41 14.36 286.90 13.83 Z" />
<path fill="#575d4f" opacity="1.00" d=" M 295.78 13.15 C 299.59 13.39 303.41 13.65 307.23 13.94 C 303.41 13.67 299.59 13.41 295.78 13.15 Z" />
<path fill="#575d4f" opacity="1.00" d=" M 264.88 25.26 C 265.47 23.72 266.42 22.21 268.10 21.71 C 268.49 23.71 266.60 24.94 264.88 25.26 Z" />
<path fill="#575d4f" opacity="1.00" d=" M 326.82 23.12 C 329.66 25.64 332.13 28.54 334.70 31.34 C 332.04 28.63 329.45 25.85 326.82 23.12 Z" />
<path fill="#575d4f" opacity="1.00" d=" M 259.76 30.15 C 260.23 28.46 261.70 27.46 263.25 26.87 C 262.96 28.58 261.77 30.50 259.76 30.15 Z" />
<path fill="#575d4f" opacity="1.00" d=" M 317.74 30.33 C 319.50 29.81 320.18 30.45 319.79 32.24 C 318.86 31.87 318.18 31.23 317.74 30.33 Z" />
<path fill="#575d4f" opacity="1.00" d=" M 274.09 34.13 C 273.79 32.31 274.52 31.72 276.26 32.35 C 275.75 33.21 275.03 33.80 274.09 34.13 Z" />
<path fill="#575d4f" opacity="1.00" d=" M 336.91 33.73 C 338.28 34.04 339.01 34.89 339.10 36.29 C 337.67 36.04 336.94 35.19 336.91 33.73 Z" />
<path fill="#575d4f" opacity="1.00" d=" M 411.79 35.67 C 413.01 34.59 414.70 34.42 416.17 35.10 C 414.96 36.25 413.24 36.42 411.79 35.67 Z" />
<path fill="#575d4f" opacity="1.00" d=" M 424.84 35.14 C 426.29 34.43 427.97 34.57 429.23 35.62 C 427.78 36.41 426.05 36.27 424.84 35.14 Z" />
<path fill="#575d4f" opacity="1.00" d=" M 268.46 40.33 C 267.73 38.62 268.28 37.87 270.11 38.06 C 269.84 39.02 269.28 39.77 268.46 40.33 Z" />
<path fill="#575d4f" opacity="1.00" d=" M 339.60 38.46 C 340.81 38.09 341.66 38.53 342.13 39.79 C 340.74 40.34 339.89 39.90 339.60 38.46 Z" />
<path fill="#575d4f" opacity="1.00" d=" M 327.74 40.22 C 329.55 39.90 330.15 40.62 329.54 42.36 C 328.67 41.87 328.07 41.15 327.74 40.22 Z" />
<path fill="#575d4f" opacity="1.00" d=" M 449.92 42.70 C 451.28 43.00 452.02 43.85 452.12 45.24 C 450.68 45.00 449.94 44.16 449.92 42.70 Z" />
<path fill="#575d4f" opacity="1.00" d=" M 452.56 47.27 C 453.89 47.06 454.74 47.67 455.09 49.09 C 453.64 49.21 452.80 48.60 452.56 47.27 Z" />
<path fill="#575d4f" opacity="1.00" d=" M 347.72 48.89 C 349.13 49.11 349.90 49.94 350.01 51.38 C 348.60 51.13 347.84 50.30 347.72 48.89 Z" />
<path fill="#575d4f" opacity="1.00" d=" M 370.99 51.36 C 371.04 49.94 371.76 49.08 373.15 48.76 C 373.12 50.20 372.40 51.06 370.99 51.36 Z" />
<path fill="#575d4f" opacity="1.00" d=" M 334.82 50.17 C 336.58 49.84 337.19 50.53 336.66 52.26 C 335.72 51.84 335.11 51.14 334.82 50.17 Z" />
<path fill="#575d4f" opacity="1.00" d=" M 365.80 55.17 C 366.05 53.79 366.88 53.02 368.28 52.86 C 368.08 54.31 367.25 55.08 365.80 55.17 Z" />
<path fill="#575d4f" opacity="1.00" d=" M 443.07 53.51 C 445.01 51.88 448.08 55.07 446.40 56.96 C 445.28 55.81 444.17 54.67 443.07 53.51 Z" />
<path fill="#575d4f" opacity="1.00" d=" M 352.16 53.63 C 353.47 54.34 353.90 55.37 353.42 56.73 C 352.24 56.01 351.81 54.97 352.16 53.63 Z" />
<path fill="#575d4f" opacity="1.00" d=" M 341.74 57.30 C 343.49 56.79 344.17 57.42 343.79 59.20 C 342.84 58.85 342.16 58.21 341.74 57.30 Z" />
<path fill="#575d4f" opacity="1.00" d=" M 360.01 60.33 C 360.07 59.03 360.81 58.31 362.23 58.16 C 362.11 59.70 361.37 60.42 360.01 60.33 Z" />
<path fill="#575d4f" opacity="1.00" d=" M 348.00 62.40 C 349.94 60.92 352.38 64.30 350.56 65.81 C 349.69 64.68 348.83 63.55 348.00 62.40 Z" />
<path fill="#575d4f" opacity="1.00" d=" M 367.29 70.23 C 366.77 68.46 367.40 67.78 369.20 68.18 C 368.82 69.11 368.18 69.79 367.29 70.23 Z" />
<path fill="#575d4f" opacity="1.00" d=" M 191.92 68.91 C 193.45 68.45 195.09 68.87 196.12 70.14 C 194.57 70.69 192.91 70.21 191.92 68.91 Z" />
<path fill="#575d4f" opacity="1.00" d=" M 200.11 69.55 C 201.41 69.26 202.36 69.74 202.97 71.00 C 201.47 71.37 200.52 70.89 200.11 69.55 Z" />
<path fill="#575d4f" opacity="1.00" d=" M 453.84 78.87 C 455.65 78.38 455.87 81.51 454.49 82.17 L 454.04 82.18 C 453.92 81.08 453.85 79.97 453.84 78.87 Z" />
<path fill="#575d4f" opacity="1.00" d=" M 254.43 83.72 C 252.87 83.05 253.20 79.78 255.00 79.90 C 255.05 81.14 255.09 82.39 255.10 83.64 L 254.43 83.72 Z" />
<path fill="#575d4f" opacity="1.00" d=" M 435.92 80.86 C 436.07 78.95 439.23 80.46 437.90 81.80 C 437.41 81.57 436.42 81.10 435.92 80.86 Z" />
<path fill="#575d4f" opacity="1.00" d=" M 177.83 82.22 C 178.00 80.60 178.83 80.34 180.31 81.45 L 180.34 81.99 C 179.72 82.05 178.46 82.16 177.83 82.22 Z" />
<path fill="#575d4f" opacity="1.00" d=" M 186.94 81.55 C 187.79 80.13 191.27 80.02 191.15 82.03 C 189.75 82.04 188.34 82.00 186.94 81.93 L 186.94 81.55 Z" />
<path fill="#575d4f" opacity="1.00" d=" M 197.35 82.79 C 196.89 80.82 200.62 81.42 199.61 83.16 C 199.05 83.07 197.92 82.88 197.35 82.79 Z" />
<path fill="#575d4f" opacity="1.00" d=" M 424.39 85.45 C 424.01 83.66 424.69 83.03 426.44 83.55 C 426.01 84.46 425.33 85.09 424.39 85.45 Z" />
<path fill="#575d4f" opacity="1.00" d=" M 355.02 88.50 C 357.09 88.61 357.10 92.25 355.17 92.65 L 355.04 92.24 C 354.99 90.99 354.98 89.74 355.02 88.50 Z" />
<path fill="#575d4f" opacity="1.00" d=" M 120.68 91.03 C 121.04 89.69 121.92 88.97 123.31 88.90 C 123.03 90.34 122.15 91.05 120.68 91.03 Z" />
<path fill="#575d4f" opacity="1.00" d=" M 454.03 88.66 L 454.57 88.67 C 455.74 90.09 455.52 90.93 453.93 91.19 C 453.95 90.56 454.00 89.30 454.03 88.66 Z" />
<path fill="#575d4f" opacity="1.00" d=" M 365.70 90.42 C 365.97 91.77 366.16 93.15 366.02 94.53 C 363.90 94.61 363.90 90.99 365.70 90.42 Z" />
<path fill="#575d4f" opacity="1.00" d=" M 439.15 89.84 C 439.15 93.30 439.10 96.76 439.01 100.22 C 439.24 96.77 439.15 93.29 439.15 89.84 Z" />
<path fill="#575d4f" opacity="1.00" d=" M 112.22 99.27 C 113.85 97.54 115.54 95.86 117.28 94.23 C 115.59 95.91 113.91 97.59 112.22 99.27 Z" />
<path fill="#575d4f" opacity="1.00" d=" M 277.63 97.37 C 276.13 95.80 278.83 93.14 280.38 94.66 C 279.52 95.62 278.60 96.52 277.63 97.37 Z" />
<path fill="#575d4f" opacity="1.00" d=" M 254.40 95.83 L 255.03 95.87 C 255.05 96.47 255.09 97.68 255.11 98.28 C 253.51 98.02 253.28 97.21 254.40 95.83 Z" />
<path fill="#575d4f" opacity="1.00" d=" M 132.92 98.97 C 132.78 97.15 133.55 96.62 135.23 97.38 C 134.66 98.20 133.89 98.73 132.92 98.97 Z" />
<path fill="#575d4f" opacity="1.00" d=" M 129.38 102.51 C 128.64 100.81 129.18 100.03 131.00 100.18 C 130.75 101.16 130.21 101.93 129.38 102.51 Z" />
<path fill="#575d4f" opacity="1.00" d=" M 435.90 104.53 C 436.49 103.17 437.49 102.06 438.45 100.95 C 440.02 102.44 437.82 105.72 435.90 104.53 Z" />
<path fill="#575d4f" opacity="1.00" d=" M 355.02 102.65 L 355.36 102.16 C 357.11 102.43 356.84 105.56 355.10 105.57 C 355.00 104.60 354.98 103.63 355.02 102.65 Z" />
<path fill="#575d4f" opacity="1.00" d=" M 104.84 107.25 C 104.98 105.44 106.61 104.46 108.08 103.76 C 107.81 105.43 106.84 107.41 104.84 107.25 Z" />
<path fill="#575d4f" opacity="1.00" d=" M 101.97 110.87 C 102.20 109.49 103.00 108.97 104.35 109.32 C 104.11 110.70 103.31 111.21 101.97 110.87 Z" />
<path fill="#575d4f" opacity="1.00" d=" M 98.89 114.81 C 99.31 113.53 100.15 113.07 101.39 113.43 C 101.11 114.86 100.27 115.32 98.89 114.81 Z" />
<path fill="#575d4f" opacity="1.00" d=" M 114.19 117.15 C 113.78 115.36 114.46 114.72 116.23 115.24 C 115.79 116.13 115.11 116.77 114.19 117.15 Z" />
<path fill="#575d4f" opacity="1.00" d=" M 365.71 119.62 C 363.92 119.04 363.93 115.43 366.04 115.52 C 366.18 116.89 366.02 118.27 365.71 119.62 Z" />
<path fill="#575d4f" opacity="1.00" d=" M 283.20 116.84 C 284.22 117.06 284.94 117.65 285.37 118.60 C 283.70 119.18 282.97 118.59 283.20 116.84 Z" />
<path fill="#575d4f" opacity="1.00" d=" M 110.37 122.27 C 109.71 120.54 110.29 119.81 112.11 120.07 C 111.81 121.02 111.23 121.75 110.37 122.27 Z" />
<path fill="#575d4f" opacity="1.00" d=" M 429.99 140.70 C 430.83 139.72 431.79 138.86 432.83 138.09 C 434.24 139.69 431.47 142.22 429.99 140.70 Z" />
<path fill="#575d4f" opacity="1.00" d=" M 396.03 138.90 C 397.00 139.14 397.75 139.70 398.27 140.58 C 396.57 141.26 395.82 140.70 396.03 138.90 Z" />
<path fill="#575d4f" opacity="1.00" d=" M 365.86 140.36 C 367.29 139.30 368.08 139.58 368.22 141.21 C 367.63 141.17 366.45 141.08 365.86 141.04 L 365.86 140.36 Z" />
<path fill="#575d4f" opacity="1.00" d=" M 444.16 144.49 C 444.15 142.99 444.89 142.13 446.38 141.93 C 446.22 143.28 445.48 144.14 444.16 144.49 Z" />
<path fill="#575d4f" opacity="1.00" d=" M 358.26 145.23 C 357.69 143.47 358.31 142.77 360.12 143.14 C 359.75 144.06 359.13 144.76 358.26 145.23 Z" />
<path fill="#575d4f" opacity="1.00" d=" M 401.31 143.26 C 402.62 144.22 403.87 145.31 404.75 146.70 C 402.89 148.05 399.95 145.12 401.31 143.26 Z" />
<path fill="#575d4f" opacity="1.00" d=" M 270.82 143.89 C 272.54 145.69 274.31 147.45 276.13 149.16 C 273.96 147.85 272.14 146.05 270.82 143.89 Z" />
<path fill="#575d4f" opacity="1.00" d=" M 355.20 149.95 C 353.70 148.85 355.48 146.10 357.07 147.16 C 356.64 148.21 356.02 149.17 355.20 149.95 Z" />
<path fill="#575d4f" opacity="1.00" d=" M 435.90 152.92 C 437.89 150.93 439.87 148.92 441.87 146.92 C 439.90 148.95 437.91 150.95 435.90 152.92 Z" />
<path fill="#575d4f" opacity="1.00" d=" M 418.75 149.68 C 419.25 148.81 419.99 148.23 420.96 147.96 C 421.19 149.76 420.45 150.34 418.75 149.68 Z" />
<path fill="#575d4f" opacity="1.00" d=" M 259.52 150.52 C 261.24 150.04 261.91 150.69 261.55 152.45 C 260.56 152.11 259.89 151.47 259.52 150.52 Z" />
<path fill="#575d4f" opacity="1.00" d=" M 334.98 157.03 C 337.05 155.07 339.06 153.05 341.05 151.00 C 339.15 153.13 337.14 155.16 334.98 157.03 Z" />
<path fill="#575d4f" opacity="1.00" d=" M 392.83 151.90 C 393.37 149.84 396.33 152.26 394.53 153.30 C 394.10 152.95 393.25 152.25 392.83 151.90 Z" />
<path fill="#575d4f" opacity="1.00" d=" M 265.77 155.28 C 267.52 154.73 268.22 155.36 267.85 157.16 C 266.91 156.80 266.22 156.17 265.77 155.28 Z" />
<path fill="#575d4f" opacity="1.00" d=" M 270.71 159.38 C 272.46 158.84 273.15 159.46 272.79 161.25 C 271.85 160.90 271.16 160.28 270.71 159.38 Z" />
<path fill="#575d4f" opacity="1.00" d=" M 400.57 159.37 C 402.31 158.75 403.02 159.35 402.72 161.17 C 401.78 160.83 401.06 160.23 400.57 159.37 Z" />
<path fill="#575d4f" opacity="1.00" d=" M 345.69 161.68 C 345.90 160.08 346.68 159.72 348.04 160.60 C 347.57 161.70 346.78 162.06 345.69 161.68 Z" />
<path fill="#575d4f" opacity="1.00" d=" M 307.33 162.96 C 308.32 162.70 309.28 162.81 310.20 163.27 C 309.02 164.69 308.06 164.59 307.33 162.96 Z" />
<path fill="#575d4f" opacity="1.00" d=" M 317.80 163.31 C 318.71 162.83 319.67 162.71 320.67 162.95 C 319.96 164.59 319.00 164.71 317.80 163.31 Z" />
<path fill="#575d4f" opacity="1.00" d=" M 337.23 171.34 C 336.94 169.55 337.66 168.96 339.38 169.57 C 338.91 170.47 338.19 171.06 337.23 171.34 Z" />
<path fill="#575d4f" opacity="1.00" d=" M 308.97 175.87 C 311.61 176.09 316.88 176.52 319.51 176.74 L 318.82 176.78 C 315.56 177.00 312.25 176.97 309.00 176.96 L 308.97 175.87 Z" />
<path fill="#575d4f" opacity="1.00" d=" M 429.93 189.18 C 430.08 189.48 430.37 190.07 430.51 190.37 C 430.14 191.43 429.41 193.57 429.04 194.63 C 428.06 192.87 428.15 190.41 429.93 189.18 Z" />
<path fill="#575d4f" opacity="1.00" d=" M 411.86 194.67 C 412.21 193.73 412.81 192.98 413.66 192.44 C 414.28 194.20 413.68 194.94 411.86 194.67 Z" />
<path fill="#575d4f" opacity="1.00" d=" M 424.91 199.19 C 425.40 197.07 426.58 194.79 429.04 194.63 C 428.58 196.82 426.76 198.18 424.91 199.19 Z" />
<path fill="#575d4f" opacity="1.00" d=" M 130.44 197.58 C 131.38 198.25 131.72 199.10 131.46 200.13 C 129.82 199.84 129.48 198.99 130.44 197.58 Z" />
<path fill="#575d4f" opacity="1.00" d=" M 257.75 200.65 C 259.21 199.48 261.07 199.23 263.33 199.90 C 262.84 201.87 258.98 202.21 257.75 200.65 Z" />
<path fill="#575d4f" opacity="1.00" d=" M 419.03 205.43 C 418.63 203.47 420.46 202.26 422.09 201.79 C 421.58 203.33 420.80 205.07 419.03 205.43 Z" />
<path fill="#575d4f" opacity="1.00" d=" M 244.99 211.31 C 245.11 208.42 245.35 205.53 245.63 202.66 C 245.45 205.55 245.20 208.41 244.99 211.31 Z" />
<path fill="#575d4f" opacity="1.00" d=" M 234.97 207.85 C 235.05 206.76 235.60 206.04 236.61 205.67 C 237.21 207.28 236.66 208.01 234.97 207.85 Z" />
<path fill="#575d4f" opacity="1.00" d=" M 414.20 209.32 C 413.92 207.90 414.43 207.00 415.74 206.61 C 416.09 207.92 415.58 208.82 414.20 209.32 Z" />
<path fill="#575d4f" opacity="1.00" d=" M 152.69 210.09 L 153.33 210.15 C 153.27 211.45 153.18 212.75 153.03 214.05 C 151.22 214.04 151.21 210.77 152.69 210.09 Z" />
<path fill="#575d4f" opacity="1.00" d=" M 100.60 217.76 C 102.47 216.19 104.28 214.54 106.01 212.81 C 104.69 214.94 102.73 216.51 100.60 217.76 Z" />
<path fill="#575d4f" opacity="1.00" d=" M 244.72 225.20 C 244.60 222.03 244.49 218.90 244.68 215.74 C 244.61 218.90 244.62 222.03 244.72 225.20 Z" />
<path fill="#575d4f" opacity="1.00" d=" M 345.22 215.98 C 346.23 215.79 347.16 215.99 348.01 216.58 C 346.71 217.86 345.78 217.67 345.22 215.98 Z" />
<path fill="#575d4f" opacity="1.00" d=" M 349.99 216.57 C 350.82 215.96 351.75 215.75 352.77 215.93 C 352.23 217.62 351.30 217.83 349.99 216.57 Z" />
<path fill="#575d4f" opacity="1.00" d=" M 232.38 220.85 C 231.61 219.70 231.41 218.20 232.36 217.09 C 233.63 218.32 233.63 219.58 232.38 220.85 Z" />
<path fill="#575d4f" opacity="1.00" d=" M 60.70 222.91 C 60.33 221.43 60.95 219.99 61.97 218.95 C 62.43 220.33 62.47 222.46 60.70 222.91 Z" />
<path fill="#575d4f" opacity="1.00" d=" M 95.04 224.78 C 95.74 223.69 96.59 222.71 97.51 221.80 C 99.08 223.22 96.70 226.11 95.04 224.78 Z" />
<path fill="#575d4f" opacity="1.00" d=" M 232.32 226.80 C 231.58 225.74 231.90 224.42 232.16 223.28 C 233.69 223.59 234.03 226.53 232.32 226.80 Z" />
<path fill="#575d4f" opacity="1.00" d=" M 269.80 224.81 C 270.14 224.76 270.82 224.65 271.17 224.60 L 271.89 224.67 C 272.30 224.87 273.12 225.26 273.54 225.46 C 272.91 227.06 269.44 226.73 269.80 224.81 Z" />
<path fill="#575d4f" opacity="1.00" d=" M 285.42 225.37 C 286.77 225.08 288.14 224.92 289.53 224.98 C 289.65 227.11 285.99 227.19 285.42 225.37 Z" />
<path fill="#575d4f" opacity="1.00" d=" M 68.51 228.94 C 67.25 227.74 67.43 226.86 69.08 226.30 C 69.08 226.85 69.08 227.96 69.08 228.52 L 68.51 228.94 Z" />
<path fill="#575d4f" opacity="1.00" d=" M 331.55 228.28 C 330.02 226.38 332.50 225.21 333.88 226.70 C 333.29 227.09 332.13 227.89 331.55 228.28 Z" />
<path fill="#575d4f" opacity="1.00" d=" M 144.05 232.29 C 142.01 231.69 142.67 226.99 144.97 227.30 L 145.07 227.82 C 144.74 229.31 144.35 230.79 144.05 232.29 Z" />
<path fill="#575d4f" opacity="1.00" d=" M 227.09 227.47 C 227.87 226.76 228.78 226.50 229.80 226.66 C 229.37 228.36 228.46 228.63 227.09 227.47 Z" />
<path fill="#575d4f" opacity="1.00" d=" M 90.76 229.81 C 90.97 228.80 91.53 228.06 92.45 227.59 C 93.09 229.26 92.53 230.00 90.76 229.81 Z" />
<path fill="#575d4f" opacity="1.00" d=" M 133.73 230.84 C 133.43 229.84 133.61 228.92 134.28 228.08 C 135.54 229.33 135.36 230.25 133.73 230.84 Z" />
<path fill="#575d4f" opacity="1.00" d=" M 220.05 228.47 C 220.91 227.92 221.85 227.76 222.85 227.99 C 222.22 229.65 221.29 229.82 220.05 228.47 Z" />
<path fill="#575d4f" opacity="1.00" d=" M 198.72 229.28 C 204.22 229.43 209.71 229.35 215.22 229.36 C 209.72 229.61 204.21 229.46 198.72 229.28 Z" />
<path fill="#575d4f" opacity="1.00" d=" M 311.70 230.48 C 312.21 228.95 313.04 228.76 314.20 229.91 C 313.52 230.89 312.68 231.08 311.70 230.48 Z" />
<path fill="#575d4f" opacity="1.00" d=" M 323.87 233.13 C 325.66 232.92 326.23 233.66 325.57 235.36 C 324.69 234.85 324.12 234.11 323.87 233.13 Z" />
<path fill="#575d4f" opacity="1.00" d=" M 291.43 235.18 C 290.56 233.37 294.28 233.08 293.71 235.01 C 293.14 235.05 292.00 235.14 291.43 235.18 Z" />
<path fill="#575d4f" opacity="1.00" d=" M 262.79 235.74 C 267.57 235.51 272.62 234.17 277.34 235.57 L 277.77 236.13 C 272.77 235.94 267.77 235.85 262.79 235.74 Z" />
<path fill="#575d4f" opacity="1.00" d=" M 61.42 236.74 C 61.53 241.22 61.41 245.70 61.35 250.19 C 61.37 245.70 61.42 241.22 61.42 236.74 Z" />
<path fill="#575d4f" opacity="1.00" d=" M 183.80 238.15 C 185.45 238.73 185.63 239.66 184.35 240.93 C 183.72 240.08 183.54 239.15 183.80 238.15 Z" />
<path fill="#575d4f" opacity="1.00" d=" M 85.74 242.54 C 85.64 241.36 85.90 240.19 86.56 239.20 C 88.13 239.82 87.52 242.88 85.74 242.54 Z" />
<path fill="#575d4f" opacity="1.00" d=" M 204.61 239.90 C 212.13 239.13 219.73 238.90 227.28 239.53 C 219.72 239.69 212.16 239.74 204.61 239.90 Z" />
<path fill="#575d4f" opacity="1.00" d=" M 68.47 239.59 L 68.55 240.35 C 68.69 241.68 68.88 243.01 69.13 244.34 C 69.74 246.86 70.48 249.35 71.19 251.86 L 71.38 252.52 C 70.23 252.26 69.09 252.01 67.95 251.75 C 68.08 247.69 68.25 243.63 68.47 239.59 Z" />
<path fill="#575d4f" opacity="1.00" d=" M 260.41 253.62 C 260.43 248.99 260.40 244.38 260.69 239.77 C 260.61 244.20 260.50 248.63 260.42 253.07 L 260.41 253.62 Z" />
<path fill="#575d4f" opacity="1.00" d=" M 307.08 244.49 C 308.93 243.04 311.96 245.95 310.56 247.85 C 309.26 246.89 308.04 245.80 307.08 244.49 Z" />
<path fill="#575d4f" opacity="1.00" d=" M 139.69 248.20 C 141.49 248.06 142.03 248.83 141.29 250.51 C 140.44 249.95 139.90 249.18 139.69 248.20 Z" />
<path fill="#575d4f" opacity="1.00" d=" M 83.08 249.83 C 83.65 249.96 84.80 250.22 85.38 250.35 C 84.82 251.76 84.01 251.82 82.95 250.53 L 83.08 249.83 Z" />
<path fill="#575d4f" opacity="1.00" d=" M 163.27 250.78 C 164.29 250.47 165.21 250.65 166.02 251.33 C 164.78 252.59 163.86 252.41 163.27 250.78 Z" />
<path fill="#575d4f" opacity="1.00" d=" M 314.66 251.46 C 316.38 250.81 317.11 251.40 316.85 253.21 C 315.89 252.91 315.16 252.33 314.66 251.46 Z" />
<path fill="#575d4f" opacity="1.00" d=" M 114.38 269.78 C 119.20 262.92 124.99 256.69 131.85 251.83 C 126.44 258.20 120.59 264.19 114.38 269.78 Z" />
<path fill="#575d4f" opacity="1.00" d=" M 294.20 256.82 C 295.09 257.26 295.73 257.94 296.12 258.86 C 294.32 259.27 293.68 258.58 294.20 256.82 Z" />
<path fill="#575d4f" opacity="1.00" d=" M 362.35 259.12 C 361.59 257.18 365.42 257.28 364.61 259.18 C 364.05 259.17 362.92 259.14 362.35 259.12 Z" />
<path fill="#575d4f" opacity="1.00" d=" M 279.68 262.15 C 279.28 260.03 283.67 259.96 283.33 262.09 C 282.11 262.24 280.89 262.26 279.68 262.15 Z" />
<path fill="#575d4f" opacity="1.00" d=" M 411.02 262.22 C 411.60 261.00 412.54 260.49 413.85 260.69 C 413.49 262.07 412.54 262.58 411.02 262.22 Z" />
<path fill="#575d4f" opacity="1.00" d=" M 428.13 260.62 C 429.40 260.41 430.38 260.86 431.08 261.99 C 429.54 262.48 428.55 262.02 428.13 260.62 Z" />
<path fill="#575d4f" opacity="1.00" d=" M 17.68 276.68 C 38.10 268.26 60.13 264.18 82.06 262.31 C 92.31 260.77 102.57 264.81 109.73 272.05 C 104.45 275.12 98.16 274.63 92.32 274.04 C 76.09 272.15 62.41 284.95 46.20 283.45 C 39.94 283.09 33.65 281.92 27.38 282.49 C 20.62 284.08 14.04 286.38 7.31 288.12 C 6.18 281.16 12.91 279.09 17.68 276.68 Z" />
<path fill="#575d4f" opacity="1.00" d=" M 219.30 262.90 C 220.31 262.71 221.25 262.89 222.11 263.46 C 220.83 264.77 219.89 264.58 219.30 262.90 Z" />
<path fill="#575d4f" opacity="1.00" d=" M 324.88 263.51 C 326.46 262.47 327.27 265.95 325.40 265.74 C 325.27 265.18 325.01 264.06 324.88 263.51 Z" />
<path fill="#575d4f" opacity="1.00" d=" M 384.51 264.38 C 385.83 263.95 386.77 264.44 387.32 265.84 C 385.93 266.11 384.99 265.62 384.51 264.38 Z" />
<path fill="#575d4f" opacity="1.00" d=" M 182.61 265.64 C 197.50 263.88 210.74 274.01 225.66 272.64 C 234.27 271.48 242.79 269.68 251.43 268.70 C 251.53 271.70 252.13 274.73 251.72 277.73 C 247.88 282.69 240.37 280.19 235.14 279.80 C 215.97 275.63 196.50 272.74 176.94 271.40 C 165.82 269.83 157.66 279.91 147.10 280.85 C 141.40 279.54 140.26 272.49 137.60 268.04 C 152.53 265.86 167.65 267.34 182.61 265.64 Z" />
<path fill="#575d4f" opacity="1.00" d=" M 388.86 266.09 C 389.68 264.92 390.76 264.58 392.13 265.07 C 391.30 266.24 390.21 266.58 388.86 266.09 Z" />
<path fill="#575d4f" opacity="1.00" d=" M 270.09 268.90 C 270.18 267.74 270.80 267.12 271.95 267.05 C 272.30 268.64 271.68 269.26 270.09 268.90 Z" />
<path fill="#575d4f" opacity="1.00" d=" M 354.96 267.34 C 355.73 266.62 356.64 266.39 357.68 266.66 C 357.16 268.31 356.25 268.53 354.96 267.34 Z" />
<path fill="#575d4f" opacity="1.00" d=" M 389.58 273.53 C 408.35 269.20 428.24 267.42 447.18 271.74 C 455.06 273.45 460.93 279.39 464.51 286.36 C 455.64 285.92 447.89 281.41 439.86 278.20 C 424.59 274.49 409.31 279.76 394.00 280.10 C 377.66 281.07 362.39 287.64 346.28 290.07 C 348.89 285.50 350.89 279.20 356.49 277.76 C 367.53 276.43 378.75 276.34 389.58 273.53 Z" />
<path fill="#575d4f" opacity="1.00" d=" M 331.68 281.10 C 333.93 277.27 336.33 273.24 340.35 271.05 C 337.64 274.16 335.00 277.34 332.27 280.43 L 331.68 281.10 Z" />
<path fill="#575d4f" opacity="1.00" d=" M 276.25 276.08 C 291.20 272.18 306.99 270.66 322.07 274.90 C 322.80 277.19 323.57 279.46 324.33 281.74 C 310.30 283.55 295.46 288.61 281.56 283.51 C 278.15 282.65 277.53 278.80 276.25 276.08 Z" />
<path fill="#575d4f" opacity="1.00" d=" M 116.46 272.72 C 117.25 273.31 117.76 274.10 118.00 275.07 C 116.16 275.18 115.65 274.39 116.46 272.72 Z" />
<path fill="#575d4f" opacity="1.00" d=" M 123.15 279.85 C 124.14 280.10 124.87 280.68 125.34 281.60 C 123.64 282.20 122.91 281.62 123.15 279.85 Z" />
<path fill="#575d4f" opacity="1.00" d=" M 186.01 280.84 C 186.42 279.27 188.58 279.22 188.98 280.83 C 188.24 280.83 186.76 280.84 186.01 280.84 Z" />
<path fill="#575d4f" opacity="1.00" d=" M 80.25 283.56 C 82.16 281.70 83.29 286.33 81.06 286.75 C 80.76 285.69 80.44 284.64 80.25 283.56 Z" />
<path fill="#575d4f" opacity="1.00" d=" M 415.02 283.86 C 415.33 282.26 417.47 282.11 417.99 283.66 C 417.25 283.71 415.77 283.81 415.02 283.86 Z" />
<path fill="#575d4f" opacity="1.00" d=" M 340.81 285.76 C 341.26 284.87 341.95 284.24 342.87 283.87 C 343.27 285.66 342.58 286.29 340.81 285.76 Z" />
<path fill="#575d4f" opacity="1.00" d=" M 67.92 289.08 C 65.99 288.85 67.66 285.73 68.94 287.19 C 68.69 287.66 68.18 288.61 67.92 289.08 Z" />
<path fill="#575d4f" opacity="1.00" d=" M 442.35 287.49 C 443.55 287.75 444.25 288.50 444.45 289.73 C 442.86 289.80 442.16 289.05 442.35 287.49 Z" />
<path fill="#575d4f" opacity="1.00" d=" M 462.21 288.59 C 464.68 288.60 467.26 288.42 469.62 289.36 C 472.10 291.01 473.30 293.87 474.78 296.34 C 471.93 296.23 468.99 296.68 466.27 295.78 C 464.16 293.89 463.31 291.09 462.21 288.59 Z" />
<path fill="#575d4f" opacity="1.00" d=" M 159.00 294.16 C 158.87 291.83 160.71 289.97 163.03 289.99 C 162.09 291.71 160.93 293.46 159.00 294.16 Z" />
<path fill="#575d4f" opacity="1.00" d=" M 65.25 290.76 C 65.44 294.27 65.54 297.75 65.72 301.28 C 65.45 297.79 65.38 294.25 65.25 290.76 Z" />
<path fill="#575d4f" opacity="1.00" d=" M 39.06 292.74 C 39.60 291.23 41.74 291.29 42.04 292.92 C 41.30 292.88 39.81 292.78 39.06 292.74 Z" />
<path fill="#575d4f" opacity="1.00" d=" M 320.75 291.91 C 322.13 292.04 322.80 292.83 322.77 294.29 C 322.21 293.85 321.10 292.98 320.54 292.54 L 320.75 291.91 Z" />
<path fill="#575d4f" opacity="1.00" d=" M 452.40 296.56 C 453.60 297.10 454.05 298.04 453.72 299.39 C 452.32 298.82 451.88 297.88 452.40 296.56 Z" />
<path fill="#575d4f" opacity="1.00" d=" M 141.25 300.41 C 141.08 298.70 143.80 298.59 143.78 300.30 C 143.15 300.33 141.88 300.38 141.25 300.41 Z" />
<path fill="#575d4f" opacity="1.00" d=" M 370.97 301.69 C 371.79 300.73 372.67 299.82 373.59 298.95 C 375.18 300.47 372.54 303.25 370.97 301.69 Z" />
<path fill="#575d4f" opacity="1.00" d=" M 339.47 300.61 C 340.34 301.13 340.89 301.89 341.13 302.88 C 339.33 303.05 338.78 302.29 339.47 300.61 Z" />
<path fill="#575d4f" opacity="1.00" d=" M 381.76 303.93 C 381.93 302.57 382.76 301.95 384.23 302.06 C 383.91 303.47 383.08 304.09 381.76 303.93 Z" />
<path fill="#575d4f" opacity="1.00" d=" M 488.26 302.67 C 492.31 303.67 496.40 304.89 500.00 307.07 L 500.00 310.69 C 496.32 309.70 492.67 308.78 488.98 307.92 C 488.72 306.17 488.47 304.42 488.26 302.67 Z" />
<path fill="#575d4f" opacity="1.00" d=" M 343.13 304.86 C 344.11 305.12 344.85 305.70 345.33 306.61 C 343.63 307.22 342.89 306.64 343.13 304.86 Z" />
<path fill="#575d4f" opacity="1.00" d=" M 331.13 305.87 C 333.06 307.94 335.02 309.98 337.01 312.01 C 334.98 310.02 333.03 307.96 331.13 305.87 Z" />
<path fill="#575d4f" opacity="1.00" d=" M 351.36 309.03 C 351.93 309.03 353.07 309.02 353.65 309.02 C 354.41 310.91 350.60 310.93 351.36 309.03 Z" />
<path fill="#575d4f" opacity="1.00" d=" M 172.82 312.25 C 173.84 311.44 174.93 311.41 176.08 312.14 C 174.95 313.23 173.86 313.26 172.82 312.25 Z" />
<path fill="#575d4f" opacity="1.00" d=" M 78.59 317.02 C 79.13 317.89 79.28 318.83 79.04 319.83 C 77.38 319.18 77.23 318.24 78.59 317.02 Z" />
<path fill="#575d4f" opacity="1.00" d=" M 348.89 318.43 C 351.64 318.61 354.35 318.58 357.13 318.63 C 354.37 318.63 351.63 318.57 348.89 318.43 Z" />
<path fill="#575d4f" opacity="1.00" d=" M 172.64 327.45 C 174.49 327.03 176.38 326.82 178.30 326.84 C 178.11 329.22 173.81 329.20 172.64 327.45 Z" />
<path fill="#575d4f" opacity="1.00" d=" M 163.61 330.45 C 163.97 329.41 164.70 328.87 165.79 328.82 C 165.93 330.51 165.20 331.05 163.61 330.45 Z" />
<path fill="#575d4f" opacity="1.00" d=" M 203.85 331.17 C 205.63 330.69 206.29 331.34 205.85 333.13 C 204.94 332.72 204.27 332.07 203.85 331.17 Z" />
<path fill="#575d4f" opacity="1.00" d=" M 196.53 331.81 C 197.60 332.59 198.41 333.64 199.08 334.78 C 197.45 335.96 195.09 333.26 196.53 331.81 Z" />
<path fill="#575d4f" opacity="1.00" d=" M 199.58 335.49 C 200.36 336.14 200.82 336.96 200.98 337.96 C 199.16 337.93 198.69 337.11 199.58 335.49 Z" />
<path fill="#575d4f" opacity="1.00" d=" M 207.88 336.15 C 209.66 336.00 210.21 336.76 209.53 338.44 C 208.64 337.91 208.09 337.15 207.88 336.15 Z" />
<path fill="#575d4f" opacity="1.00" d=" M 209.82 339.09 C 211.61 338.96 212.15 339.73 211.42 341.40 C 210.56 340.85 210.02 340.08 209.82 339.09 Z" />
<path fill="#575d4f" opacity="1.00" d=" M 150.99 344.72 C 149.02 345.34 149.35 341.53 151.19 342.47 C 151.14 343.03 151.04 344.16 150.99 344.72 Z" />
<path fill="#575d4f" opacity="1.00" d=" M 154.31 345.14 C 153.43 344.11 154.01 342.69 155.37 342.62 C 155.10 343.25 154.58 344.51 154.31 345.14 Z" />
<path fill="#575d4f" opacity="1.00" d=" M 171.59 347.96 C 174.10 349.11 174.53 351.48 172.87 355.05 C 171.56 352.82 171.13 350.46 171.59 347.96 Z" />
<path fill="#575d4f" opacity="1.00" d=" M 160.61 353.16 C 159.04 352.86 158.06 350.86 159.53 349.78 C 160.47 350.71 160.83 351.84 160.61 353.16 Z" />
<path fill="#575d4f" opacity="1.00" d=" M 100.75 351.17 C 102.53 351.08 103.05 351.86 102.30 353.51 C 101.43 352.95 100.91 352.17 100.75 351.17 Z" />
<path fill="#575d4f" opacity="1.00" d=" M 185.76 350.96 C 187.28 351.48 189.14 352.31 189.24 354.18 C 187.31 354.38 186.25 352.53 185.76 350.96 Z" />
<path fill="#575d4f" opacity="1.00" d=" M 177.21 356.84 C 176.71 355.35 177.24 354.73 178.80 354.97 C 178.98 356.19 178.45 356.82 177.21 356.84 Z" />
<path fill="#575d4f" opacity="1.00" d=" M 154.15 358.89 C 155.16 359.18 155.82 359.82 156.14 360.83 C 154.44 361.25 153.77 360.60 154.15 358.89 Z" />
<path fill="#575d4f" opacity="1.00" d=" M 179.84 361.64 C 180.44 360.49 181.17 359.41 182.10 358.50 C 183.70 359.80 181.59 362.81 179.84 361.64 Z" />
<path fill="#575d4f" opacity="1.00" d=" M 175.53 364.42 C 175.02 362.89 175.55 362.21 177.14 362.37 C 177.24 363.55 176.71 364.24 175.53 364.42 Z" />
<path fill="#575d4f" opacity="1.00" d=" M 222.90 371.18 C 224.61 371.68 224.84 372.60 223.58 373.94 C 222.98 373.10 222.75 372.18 222.90 371.18 Z" />
<path fill="#575d4f" opacity="1.00" d=" M 233.09 371.77 C 233.38 375.54 233.66 379.32 233.94 383.11 L 233.32 383.16 C 233.45 379.37 233.24 375.54 233.09 371.77 Z" />
<path fill="#575d4f" opacity="1.00" d=" M 205.87 374.42 C 206.43 374.75 207.56 375.39 208.12 375.72 C 207.75 376.97 207.02 379.48 206.66 380.73 C 206.46 379.16 206.07 376.00 205.87 374.42 Z" />
<path fill="#575d4f" opacity="1.00" d=" M 105.51 374.63 C 106.40 375.13 106.96 375.88 107.20 376.88 C 105.41 377.06 104.85 376.31 105.51 374.63 Z" />
<path fill="#575d4f" opacity="1.00" d=" M 124.83 375.79 C 126.20 376.15 126.88 377.05 126.86 378.49 C 125.48 378.12 124.80 377.22 124.83 375.79 Z" />
<path fill="#575d4f" opacity="1.00" d=" M 107.52 377.53 C 108.39 378.08 108.91 378.86 109.08 379.87 C 107.29 379.95 106.78 379.17 107.52 377.53 Z" />
<path fill="#575d4f" opacity="1.00" d=" M 222.98 382.85 C 222.78 381.83 222.97 380.90 223.56 380.06 C 224.86 381.34 224.67 382.27 222.98 382.85 Z" />
<path fill="#575d4f" opacity="1.00" d=" M 131.05 383.92 C 133.57 386.77 136.21 389.49 138.88 392.21 C 135.86 389.87 133.50 386.82 131.05 383.92 Z" />
<path fill="#575d4f" opacity="1.00" d=" M 112.38 384.68 C 113.30 385.13 113.89 385.85 114.14 386.85 C 112.37 387.09 111.78 386.37 112.38 384.68 Z" />
<path fill="#575d4f" opacity="1.00" d=" M 101.65 386.12 C 103.09 385.91 103.96 386.49 104.26 387.84 C 102.95 388.08 102.08 387.51 101.65 386.12 Z" />
<path fill="#575d4f" opacity="1.00" d=" M 121.73 386.22 C 123.52 386.04 124.07 386.80 123.39 388.48 C 122.51 387.96 121.95 387.21 121.73 386.22 Z" />
<path fill="#575d4f" opacity="1.00" d=" M 104.84 390.03 C 106.19 389.98 107.02 390.59 107.34 391.86 C 105.91 392.14 105.08 391.53 104.84 390.03 Z" />
<path fill="#575d4f" opacity="1.00" d=" M 116.38 389.67 C 117.30 390.12 117.90 390.84 118.17 391.84 C 116.39 392.09 115.80 391.37 116.38 389.67 Z" />
<path fill="#575d4f" opacity="1.00" d=" M 125.82 390.97 C 129.07 393.14 131.94 395.86 134.07 399.16 C 131.04 396.72 128.25 394.01 125.82 390.97 Z" />
<path fill="#575d4f" opacity="1.00" d=" M 108.44 395.08 C 109.90 395.10 110.74 395.84 110.97 397.30 C 109.57 397.17 108.73 396.43 108.44 395.08 Z" />
<path fill="#575d4f" opacity="1.00" d=" M 197.38 399.35 C 196.95 398.00 197.42 397.17 198.78 396.85 C 199.20 398.15 198.73 398.98 197.38 399.35 Z" />
<path fill="#575d4f" opacity="1.00" d=" M 136.58 401.59 C 138.25 400.88 139.01 401.43 138.87 403.23 C 137.87 403.00 137.11 402.45 136.58 401.59 Z" />
<path fill="#575d4f" opacity="1.00" d=" M 115.08 401.86 C 118.84 405.48 122.51 409.18 126.15 412.93 C 122.25 409.45 118.67 405.64 115.08 401.86 Z" />
<path fill="#575d4f" opacity="1.00" d=" M 129.19 402.81 C 130.17 403.08 130.89 403.67 131.37 404.58 C 129.66 405.17 128.93 404.58 129.19 402.81 Z" />
<path fill="#575d4f" opacity="1.00" d=" M 139.53 403.57 C 141.21 402.94 141.95 403.51 141.77 405.27 C 140.75 405.07 140.00 404.50 139.53 403.57 Z" />
<path fill="#575d4f" opacity="1.00" d=" M 170.06 403.23 C 171.46 402.66 172.49 402.98 173.14 404.20 C 171.90 404.73 170.88 404.41 170.06 403.23 Z" />
<path fill="#575d4f" opacity="1.00" d=" M 181.84 404.16 C 182.54 402.92 183.60 402.64 185.00 403.31 C 184.12 404.38 183.06 404.67 181.84 404.16 Z" />
<path fill="#575d4f" opacity="1.00" d=" M 162.97 412.72 C 164.17 411.34 165.11 411.48 165.78 413.13 C 164.78 413.39 163.85 413.26 162.97 412.72 Z" />
<path fill="#575d4f" opacity="1.00" d=" M 177.14 413.09 C 177.87 411.45 178.81 411.36 179.96 412.80 C 179.06 413.27 178.11 413.37 177.14 413.09 Z" />
<path fill="#575d4f" opacity="1.00" d=" M 168.46 427.29 C 168.80 426.77 169.47 425.74 169.81 425.22 C 171.08 425.59 173.62 426.34 174.88 426.71 C 173.28 426.85 170.07 427.14 168.46 427.29 Z" />
</g>
<g id="#020202ff">
<path fill="#020202" opacity="1.00" d=" M 289.89 12.57 C 291.84 12.82 293.81 13.01 295.78 13.15 C 299.59 13.41 303.41 13.67 307.23 13.94 C 314.63 14.45 321.23 18.50 326.82 23.12 C 329.45 25.85 332.04 28.63 334.70 31.34 C 335.43 32.13 336.17 32.93 336.91 33.73 C 336.94 35.19 337.67 36.04 339.10 36.29 C 339.23 36.83 339.47 37.92 339.60 38.46 C 339.89 39.90 340.74 40.34 342.13 39.79 C 343.80 42.94 345.78 45.90 347.72 48.89 C 347.84 50.30 348.60 51.13 350.01 51.38 C 350.72 52.13 351.43 52.88 352.16 53.63 C 351.81 54.97 352.24 56.01 353.42 56.73 C 354.36 57.79 355.44 57.98 356.65 57.31 C 356.06 58.81 356.47 59.72 357.88 60.05 C 358.58 60.16 359.29 60.25 360.01 60.33 C 361.37 60.42 362.11 59.70 362.23 58.16 C 363.41 57.16 364.60 56.16 365.80 55.17 C 367.25 55.08 368.08 54.31 368.28 52.86 C 369.18 52.36 370.08 51.86 370.99 51.36 C 372.40 51.06 373.12 50.20 373.15 48.76 C 384.96 41.65 398.24 37.77 411.79 35.67 C 413.24 36.42 414.96 36.25 416.17 35.10 C 419.07 35.11 421.90 35.12 424.84 35.14 C 426.05 36.27 427.78 36.41 429.23 35.62 C 436.32 37.40 443.25 39.72 449.92 42.70 C 449.94 44.16 450.68 45.00 452.12 45.24 C 452.23 45.74 452.45 46.76 452.56 47.27 C 452.80 48.60 453.64 49.21 455.09 49.09 C 460.45 59.80 465.14 71.23 464.93 83.43 C 465.08 85.02 465.37 88.19 465.51 89.78 C 463.06 108.37 456.35 126.09 446.38 141.93 C 444.89 142.13 444.15 142.99 444.16 144.49 C 443.40 145.30 442.64 146.12 441.87 146.92 C 439.87 148.92 437.89 150.93 435.90 152.92 C 430.91 157.90 424.20 160.47 417.90 163.35 C 422.38 171.74 426.40 180.35 429.93 189.18 C 428.15 190.41 428.06 192.87 429.04 194.63 C 426.58 194.79 425.40 197.07 424.91 199.19 C 423.97 200.06 423.03 200.92 422.09 201.79 C 420.46 202.26 418.63 203.47 419.03 205.43 C 417.94 205.83 416.84 206.22 415.74 206.61 C 414.43 207.00 413.92 207.90 414.20 209.32 C 395.17 221.58 372.97 227.89 350.64 230.56 C 344.82 230.94 339.27 228.53 333.88 226.70 C 332.50 225.21 330.02 226.38 331.55 228.28 C 335.41 237.75 338.90 247.42 344.00 256.33 C 349.21 253.78 354.16 250.48 359.80 248.98 C 366.17 247.25 371.43 251.79 376.77 254.42 C 377.13 256.18 378.45 257.55 380.24 257.90 C 380.37 259.32 381.16 260.08 382.59 260.19 C 383.23 261.59 383.88 262.98 384.51 264.38 C 384.99 265.62 385.93 266.11 387.32 265.84 C 387.71 265.90 388.48 266.03 388.86 266.09 C 390.21 266.58 391.30 266.24 392.13 265.07 C 398.43 264.16 404.71 263.10 411.02 262.22 C 412.54 262.58 413.49 262.07 413.85 260.69 C 418.61 260.91 423.36 260.74 428.13 260.62 C 428.55 262.02 429.54 262.48 431.08 261.99 C 444.47 264.55 456.78 270.60 468.32 277.68 C 478.40 283.89 489.17 288.82 500.00 293.55 L 500.00 307.07 C 496.40 304.89 492.31 303.67 488.26 302.67 C 488.47 304.42 488.72 306.17 488.98 307.92 C 492.67 308.78 496.32 309.70 500.00 310.69 L 500.00 317.39 C 483.63 314.08 467.93 308.22 453.72 299.39 C 454.05 298.04 453.60 297.10 452.40 296.56 C 450.91 295.78 449.44 294.96 447.98 294.15 C 447.49 292.73 446.58 292.20 445.25 292.54 C 444.97 291.60 444.70 290.66 444.45 289.73 C 444.25 288.50 443.55 287.75 442.35 287.49 C 434.71 284.04 426.32 283.11 417.99 283.66 C 417.47 282.11 415.33 282.26 415.02 283.86 C 407.96 285.03 400.84 286.06 393.93 287.94 C 387.54 289.41 387.09 297.36 384.23 302.06 C 382.76 301.95 381.93 302.57 381.76 303.93 C 381.68 304.47 381.51 305.54 381.43 306.08 C 379.51 306.01 378.56 307.87 378.12 309.46 C 371.61 313.41 365.02 318.29 357.13 318.63 C 354.35 318.58 351.64 318.61 348.89 318.43 C 344.39 317.70 340.34 315.04 337.01 312.01 C 335.02 309.98 333.06 307.94 331.13 305.87 C 328.03 302.24 325.41 298.25 322.77 294.29 C 322.80 292.83 322.13 292.04 320.75 291.91 C 319.23 291.54 317.67 291.66 316.17 291.97 C 314.77 291.33 313.83 291.66 313.35 292.95 C 304.64 292.14 295.20 290.90 287.22 295.36 C 279.09 299.73 270.64 303.73 261.20 304.02 C 258.15 299.14 256.08 293.35 251.91 289.30 C 244.32 286.97 236.30 286.83 228.52 285.46 C 215.39 283.68 202.34 279.48 188.98 280.83 C 188.58 279.22 186.42 279.27 186.01 280.84 C 180.70 281.52 175.36 282.11 170.13 283.33 C 166.69 284.04 164.83 287.30 163.03 289.99 C 160.71 289.97 158.87 291.83 159.00 294.16 C 154.09 296.59 149.01 298.66 143.78 300.30 C 143.80 298.59 141.08 298.70 141.25 300.41 C 130.38 299.24 122.14 290.58 111.20 289.90 C 108.43 289.61 105.68 289.43 102.91 289.28 C 99.14 289.11 95.36 288.97 91.59 288.87 C 92.67 307.90 96.89 326.96 106.36 343.67 C 112.64 354.30 118.76 365.03 124.83 375.79 C 124.80 377.22 125.48 378.12 126.86 378.49 C 128.22 380.32 129.59 382.16 131.05 383.92 C 133.50 386.82 135.86 389.87 138.88 392.21 C 147.50 399.87 159.10 401.63 170.06 403.23 C 170.88 404.41 171.90 404.73 173.14 404.20 L 174.00 403.86 C 175.74 403.86 179.22 403.85 180.97 403.84 L 181.84 404.16 C 183.06 404.67 184.12 404.38 185.00 403.31 C 189.20 402.22 193.29 400.79 197.38 399.35 C 198.73 398.98 199.20 398.15 198.78 396.85 C 200.42 396.83 201.92 395.77 202.36 394.17 C 204.32 389.89 205.59 385.31 206.66 380.73 C 207.02 379.48 207.75 376.97 208.12 375.72 C 207.56 375.39 206.43 374.75 205.87 374.42 C 204.71 359.37 196.67 346.28 189.80 333.26 C 178.73 336.56 165.90 338.86 159.53 349.78 C 158.06 350.86 159.04 352.86 160.61 353.16 C 164.77 355.38 168.82 357.82 172.91 360.18 C 172.89 358.47 172.89 356.76 172.87 355.05 C 174.53 351.48 174.10 349.11 171.59 347.96 C 171.92 346.70 172.24 345.45 172.56 344.19 C 176.98 346.40 181.42 348.58 185.76 350.96 C 186.25 352.53 187.31 354.38 189.24 354.18 C 189.91 357.39 190.43 360.60 190.96 363.84 C 189.29 364.18 188.29 365.81 188.44 367.45 C 182.60 370.41 176.80 374.31 169.92 373.92 C 163.97 374.90 158.61 372.13 153.42 369.76 C 153.80 368.38 153.24 367.47 151.75 367.03 C 145.16 357.30 140.08 346.56 137.48 335.06 C 149.13 327.25 161.10 319.95 172.82 312.25 C 173.86 313.26 174.95 313.23 176.08 312.14 C 183.49 312.40 191.24 312.12 198.32 314.73 C 202.68 316.44 206.82 318.65 211.11 320.52 C 210.84 322.46 212.60 323.66 214.22 324.18 C 223.39 338.62 232.19 354.27 233.09 371.77 C 233.24 375.54 233.45 379.37 233.32 383.16 C 232.25 384.92 232.13 387.30 233.72 388.80 C 231.66 395.50 230.39 403.03 225.37 408.29 C 218.48 413.44 210.74 417.32 203.02 421.05 C 195.55 425.05 186.94 425.39 178.77 426.85 C 178.35 425.27 176.21 425.30 175.78 426.85 L 174.88 426.71 C 173.62 426.34 171.08 425.59 169.81 425.22 C 169.47 425.74 168.80 426.77 168.46 427.29 C 153.55 425.90 137.91 422.87 126.15 412.93 C 122.51 409.18 118.84 405.48 115.08 401.86 C 113.65 400.39 112.30 398.85 110.97 397.30 C 110.74 395.84 109.90 395.10 108.44 395.08 C 108.06 394.01 107.69 392.93 107.34 391.86 C 107.02 390.59 106.19 389.98 104.84 390.03 C 104.70 389.48 104.41 388.39 104.26 387.84 C 103.96 386.49 103.09 385.91 101.65 386.12 C 84.42 360.55 67.92 332.85 65.72 301.28 C 65.54 297.75 65.44 294.27 65.25 290.76 C 65.22 290.15 65.17 288.92 65.14 288.30 C 58.71 290.07 52.21 291.57 45.70 293.06 C 45.98 291.14 43.47 291.62 42.93 292.86 L 42.04 292.92 C 41.74 291.29 39.60 291.23 39.06 292.74 C 25.84 294.44 12.61 296.93 0.00 301.31 L 0.00 271.53 C 19.21 261.34 40.17 254.84 61.35 250.19 C 61.41 245.70 61.53 241.22 61.42 236.74 C 61.29 232.13 60.98 227.51 60.70 222.91 C 62.47 222.46 62.43 220.33 61.97 218.95 C 65.07 204.24 68.25 189.54 72.26 175.05 C 79.04 154.12 87.97 133.91 98.89 114.81 C 100.27 115.32 101.11 114.86 101.39 113.43 C 101.54 112.79 101.82 111.51 101.97 110.87 C 103.31 111.21 104.11 110.70 104.35 109.32 C 104.47 108.80 104.72 107.76 104.84 107.25 C 106.84 107.41 107.81 105.43 108.08 103.76 C 109.44 102.25 110.80 100.74 112.22 99.27 C 113.91 97.59 115.59 95.91 117.28 94.23 C 118.40 93.15 119.54 92.09 120.68 91.03 C 122.15 91.05 123.03 90.34 123.31 88.90 C 140.87 77.34 161.34 71.20 182.04 68.45 C 183.20 69.09 184.43 69.35 185.73 69.23 C 187.79 69.09 189.85 69.00 191.92 68.91 C 192.91 70.21 194.57 70.69 196.12 70.14 C 197.45 69.95 198.78 69.76 200.11 69.55 C 200.52 70.89 201.47 71.37 202.97 71.00 C 216.99 73.36 230.42 78.09 243.68 83.10 C 246.36 64.76 250.38 46.34 259.76 30.15 C 261.77 30.50 262.96 28.58 263.25 26.87 C 263.79 26.33 264.34 25.80 264.88 25.26 C 266.60 24.94 268.49 23.71 268.10 21.71 C 274.20 18.71 280.27 15.49 286.90 13.83 C 288.41 14.36 289.40 13.94 289.89 12.57 M 276.26 32.35 C 274.52 31.72 273.79 32.31 274.09 34.13 C 273.89 34.42 273.49 35.01 273.29 35.30 C 271.54 34.88 270.88 35.54 271.30 37.28 C 271.00 37.48 270.41 37.87 270.11 38.06 C 268.28 37.87 267.73 38.62 268.46 40.33 C 260.16 51.70 256.07 65.99 255.00 79.90 C 253.20 79.78 252.87 83.05 254.43 83.72 C 254.45 84.43 254.49 85.83 254.50 86.54 C 254.51 87.62 254.54 89.79 254.55 90.87 C 252.77 91.70 252.79 94.79 254.40 95.83 C 253.28 97.21 253.51 98.02 255.11 98.28 C 256.34 114.33 260.36 131.19 270.82 143.89 C 272.14 146.05 273.96 147.85 276.13 149.16 C 284.96 156.41 295.60 162.67 307.33 162.96 C 308.06 164.59 309.02 164.69 310.20 163.27 L 311.25 163.33 C 312.23 165.32 315.78 165.51 316.68 163.36 L 317.80 163.31 C 319.00 164.71 319.96 164.59 320.67 162.95 C 326.03 163.22 330.98 160.33 334.98 157.03 C 337.14 155.16 339.15 153.13 341.05 151.00 C 345.58 145.28 348.45 138.36 350.57 131.42 C 352.74 122.96 355.61 114.44 355.10 105.57 C 356.84 105.56 357.11 102.43 355.36 102.16 C 356.74 99.19 355.70 95.72 355.17 92.65 C 357.10 92.25 357.09 88.61 355.02 88.50 C 354.59 80.78 352.58 73.22 350.56 65.81 C 352.38 64.30 349.94 60.92 348.00 62.40 C 346.79 61.11 345.32 60.07 343.79 59.20 C 344.17 57.42 343.49 56.79 341.74 57.30 C 340.37 55.33 338.63 53.62 336.66 52.26 C 337.19 50.53 336.58 49.84 334.82 50.17 C 333.50 47.31 331.78 44.59 329.54 42.36 C 330.15 40.62 329.55 39.90 327.74 40.22 C 325.84 36.93 323.03 34.19 319.79 32.24 C 320.18 30.45 319.50 29.81 317.74 30.33 C 305.62 20.80 288.06 24.00 276.26 32.35 M 413.61 46.61 C 397.37 49.40 379.86 54.78 369.20 68.18 C 367.40 67.78 366.77 68.46 367.29 70.23 C 362.60 75.74 365.72 83.99 365.70 90.42 C 363.90 90.99 363.90 94.61 366.02 94.53 C 365.74 101.52 365.88 108.52 366.04 115.52 C 363.93 115.43 363.92 119.04 365.71 119.62 C 365.45 121.36 364.93 124.85 364.67 126.60 C 375.80 128.84 386.03 133.75 396.03 138.90 C 395.82 140.70 396.57 141.26 398.27 140.58 C 399.17 141.58 400.24 142.43 401.31 143.26 C 399.95 145.12 402.89 148.05 404.75 146.70 C 407.18 150.19 409.58 153.71 411.95 157.24 C 414.23 154.73 416.58 152.29 418.75 149.68 C 420.45 150.34 421.19 149.76 420.96 147.96 C 424.26 145.97 427.26 143.42 429.99 140.70 C 431.47 142.22 434.24 139.69 432.83 138.09 C 433.64 137.46 434.30 136.70 434.81 135.81 C 436.57 136.17 437.20 135.48 436.72 133.75 C 441.23 129.95 443.15 123.99 445.94 118.98 C 449.88 110.18 454.17 101.06 453.93 91.19 C 455.52 90.93 455.74 90.09 454.57 88.67 C 455.77 86.84 455.59 84.02 454.49 82.17 C 455.87 81.51 455.65 78.38 453.84 78.87 C 453.05 71.14 450.00 63.77 446.40 56.96 C 448.08 55.07 445.01 51.88 443.07 53.51 C 434.84 47.22 423.80 44.71 413.61 46.61 M 177.83 82.22 C 162.99 84.92 148.43 90.08 135.23 97.38 C 133.55 96.62 132.78 97.15 132.92 98.97 C 132.44 99.27 131.48 99.88 131.00 100.18 C 129.18 100.03 128.64 100.81 129.38 102.51 C 127.95 101.07 125.08 103.31 126.31 105.00 C 123.01 107.06 120.26 109.95 118.15 113.19 C 116.39 112.81 115.75 113.50 116.23 115.24 C 114.46 114.72 113.78 115.36 114.19 117.15 C 113.30 117.97 112.64 118.99 112.11 120.07 C 110.29 119.81 109.71 120.54 110.37 122.27 C 98.67 138.77 90.55 157.49 83.71 176.45 L 83.15 176.30 C 82.71 178.34 82.24 180.37 81.77 182.41 L 82.43 182.41 C 78.41 197.17 71.88 211.24 69.08 226.30 C 67.43 226.86 67.25 227.74 68.51 228.94 C 67.54 232.42 68.22 236.06 68.47 239.59 C 68.25 243.63 68.08 247.69 67.95 251.75 C 69.09 252.01 70.23 252.26 71.38 252.52 L 71.19 251.86 C 73.26 251.46 77.41 250.65 79.49 250.25 C 80.50 251.62 81.65 251.72 82.95 250.53 C 84.01 251.82 84.82 251.76 85.38 250.35 C 85.47 248.40 85.65 244.50 85.74 242.54 C 87.52 242.88 88.13 239.82 86.56 239.20 C 88.06 236.12 89.57 233.02 90.76 229.81 C 92.53 230.00 93.09 229.26 92.45 227.59 C 93.46 226.80 94.29 225.81 95.04 224.78 C 96.70 226.11 99.08 223.22 97.51 221.80 C 97.83 221.32 98.46 220.36 98.78 219.88 C 100.54 220.17 101.15 219.46 100.60 217.76 C 102.73 216.51 104.69 214.94 106.01 212.81 C 106.79 211.78 107.43 210.65 108.08 209.54 C 109.94 210.69 112.65 207.71 111.40 205.93 C 115.66 202.82 119.36 199.04 123.11 195.36 C 124.04 194.94 125.00 194.58 125.98 194.28 C 126.30 195.88 127.15 196.22 128.53 195.30 C 128.00 197.04 128.64 197.80 130.44 197.58 C 129.48 198.99 129.82 199.84 131.46 200.13 C 128.85 205.90 125.55 211.56 125.07 218.03 C 124.06 229.67 126.58 241.45 131.85 251.83 C 124.99 256.69 119.20 262.92 114.38 269.78 C 115.03 270.78 115.67 271.80 116.46 272.72 C 115.65 274.39 116.16 275.18 118.00 275.07 C 119.08 277.18 121.00 278.85 123.15 279.85 C 122.91 281.62 123.64 282.20 125.34 281.60 C 128.04 284.15 131.59 285.63 134.81 287.45 C 131.42 280.16 128.06 272.87 124.95 265.46 C 131.31 261.97 137.49 258.20 143.72 254.49 C 142.95 253.13 142.24 251.74 141.29 250.51 C 142.03 248.83 141.49 248.06 139.69 248.20 C 137.06 242.65 134.42 237.04 133.73 230.84 C 135.36 230.25 135.54 229.33 134.28 228.08 C 137.82 219.98 140.08 211.37 143.07 203.05 C 146.39 204.06 149.88 204.96 152.50 207.38 C 152.55 208.06 152.64 209.41 152.69 210.09 C 151.21 210.77 151.22 214.04 153.03 214.05 C 152.94 214.98 152.76 216.85 152.68 217.79 C 163.75 221.49 174.96 225.02 186.57 226.52 C 190.41 228.20 194.51 229.16 198.72 229.28 C 204.21 229.46 209.72 229.61 215.22 229.36 C 216.85 229.24 218.50 229.04 220.05 228.47 C 221.29 229.82 222.22 229.65 222.85 227.99 C 224.31 228.17 225.73 228.00 227.09 227.47 C 228.46 228.63 229.37 228.36 229.80 226.66 C 230.43 226.70 231.69 226.76 232.32 226.80 C 234.03 226.53 233.69 223.59 232.16 223.28 C 232.22 222.67 232.32 221.45 232.38 220.85 C 233.63 219.58 233.63 218.32 232.36 217.09 C 232.63 216.57 233.16 215.55 233.43 215.03 L 233.13 214.41 C 233.80 212.24 234.49 210.07 234.97 207.85 C 236.66 208.01 237.21 207.28 236.61 205.67 C 239.60 204.18 242.60 202.70 245.70 201.43 L 245.63 202.66 C 245.35 205.53 245.11 208.42 244.99 211.31 C 244.88 212.78 244.74 214.26 244.68 215.74 C 244.49 218.90 244.60 222.03 244.72 225.20 C 245.02 229.19 245.85 233.13 246.72 237.03 C 249.49 246.29 253.99 254.91 258.79 263.26 C 264.01 271.85 260.26 282.48 261.04 291.84 C 264.33 292.93 267.63 294.02 270.92 295.13 C 266.56 286.85 267.55 277.56 270.09 268.90 C 271.68 269.26 272.30 268.64 271.95 267.05 C 276.91 266.13 281.88 265.23 286.91 264.81 C 286.92 264.05 286.96 262.52 286.98 261.76 C 286.07 261.84 284.24 262.01 283.33 262.09 C 283.67 259.96 279.28 260.03 279.68 262.15 C 275.01 261.87 270.32 261.67 265.70 261.03 C 262.10 259.43 258.88 256.56 257.26 252.92 C 254.85 246.31 253.64 239.07 249.61 233.17 C 253.50 222.76 251.37 210.25 257.75 200.65 C 258.98 202.21 262.84 201.87 263.33 199.90 L 264.93 199.89 C 264.09 208.24 261.95 216.39 259.90 224.51 C 263.19 224.76 266.48 225.04 269.80 224.81 C 269.44 226.73 272.91 227.06 273.54 225.46 C 277.39 226.73 281.51 225.74 285.42 225.37 C 285.99 227.19 289.65 227.11 289.53 224.98 C 299.50 224.79 308.78 220.26 317.67 216.09 C 321.38 214.06 325.11 212.05 328.69 209.79 C 333.96 212.33 339.16 216.06 345.22 215.98 C 345.78 217.67 346.71 217.86 348.01 216.58 C 348.51 216.57 349.50 216.57 349.99 216.57 C 351.30 217.83 352.23 217.62 352.77 215.93 C 361.38 215.89 369.61 212.68 377.93 210.82 C 389.74 206.87 402.39 203.14 411.86 194.67 C 413.68 194.94 414.28 194.20 413.66 192.44 C 415.04 193.38 415.88 193.04 416.18 191.43 C 415.79 186.36 414.46 181.45 412.16 176.93 C 409.09 171.63 406.15 166.25 402.72 161.17 C 403.02 159.35 402.31 158.75 400.57 159.37 C 400.27 159.07 399.68 158.47 399.38 158.17 C 400.76 156.24 397.76 153.21 395.83 154.61 C 395.50 154.29 394.85 153.63 394.53 153.30 C 396.33 152.26 393.37 149.84 392.83 151.90 C 385.34 147.10 377.06 142.78 368.22 141.21 C 368.08 139.58 367.29 139.30 365.86 140.36 C 365.27 138.87 362.29 139.50 362.89 141.16 C 361.83 141.63 360.90 142.29 360.12 143.14 C 358.31 142.77 357.69 143.47 358.26 145.23 C 357.96 145.72 357.37 146.68 357.07 147.16 C 355.48 146.10 353.70 148.85 355.20 149.95 C 352.38 153.18 350.30 156.97 348.04 160.60 C 346.68 159.72 345.90 160.08 345.69 161.68 L 345.84 163.07 C 344.19 163.26 343.79 164.10 344.63 165.57 C 343.19 164.17 340.27 166.30 341.43 168.05 C 340.92 168.43 339.90 169.19 339.38 169.57 C 337.66 168.96 336.94 169.55 337.23 171.34 C 331.41 174.06 325.29 176.32 318.82 176.78 L 319.51 176.74 C 316.88 176.52 311.61 176.09 308.97 175.87 L 309.00 176.96 C 295.55 175.74 283.88 168.33 272.79 161.25 C 273.15 159.46 272.46 158.84 270.71 159.38 C 269.86 158.51 268.89 157.77 267.85 157.16 C 268.22 155.36 267.52 154.73 265.77 155.28 C 265.27 155.01 264.25 154.47 263.75 154.19 C 263.98 152.41 263.25 151.83 261.55 152.45 C 261.91 150.69 261.24 150.04 259.52 150.52 C 255.79 144.48 252.54 138.14 250.06 131.48 C 247.85 121.63 245.75 111.73 242.75 102.08 C 241.54 98.25 237.93 95.99 234.46 94.44 C 223.31 89.47 211.76 84.91 199.61 83.16 C 200.62 81.42 196.89 80.82 197.35 82.79 C 195.33 82.29 193.24 82.05 191.15 82.03 C 191.27 80.02 187.79 80.13 186.94 81.55 C 185.03 80.49 182.17 80.15 180.31 81.45 C 178.83 80.34 178.00 80.60 177.83 82.22 M 110.07 217.12 C 103.04 228.85 96.01 241.25 95.68 255.31 C 103.95 253.67 112.00 251.14 119.83 248.02 C 116.93 237.54 117.20 226.64 117.72 215.89 C 115.15 216.24 112.63 216.70 110.07 217.12 M 144.05 232.29 C 143.83 236.24 143.81 240.19 143.99 244.16 C 148.37 244.70 151.27 246.96 150.93 251.93 C 155.05 251.60 159.17 251.30 163.27 250.78 C 163.86 252.41 164.78 252.59 166.02 251.33 C 166.65 251.71 167.89 252.48 168.52 252.87 C 167.52 249.03 166.52 245.18 165.71 241.30 C 165.74 239.55 165.81 236.06 165.84 234.31 C 165.36 233.98 164.40 233.31 163.92 232.97 C 158.83 231.00 153.83 228.01 148.20 228.14 C 148.59 226.45 145.68 225.95 144.97 227.30 C 142.67 226.99 142.01 231.69 144.05 232.29 M 314.20 229.91 C 313.04 228.76 312.21 228.95 311.70 230.48 C 315.06 240.92 323.83 248.46 333.77 252.48 C 331.18 246.73 329.43 240.39 325.57 235.36 C 326.23 233.66 325.66 232.92 323.87 233.13 C 322.27 230.43 319.11 229.09 316.87 227.04 C 315.97 227.98 315.08 228.94 314.20 229.91 M 291.43 235.18 C 288.37 235.21 285.35 235.38 282.34 235.82 C 281.94 234.26 281.12 234.10 279.90 235.33 C 279.26 235.39 277.98 235.51 277.34 235.57 C 272.62 234.17 267.57 235.51 262.79 235.74 C 262.30 235.73 261.32 235.72 260.83 235.72 C 260.77 237.07 260.73 238.41 260.69 239.77 C 260.40 244.38 260.43 248.99 260.41 253.62 L 260.42 253.07 C 264.24 254.65 268.19 255.90 272.21 256.93 C 272.87 256.84 274.20 256.67 274.87 256.59 C 280.30 257.04 285.57 255.04 290.88 254.28 C 291.01 255.91 291.79 256.31 293.21 255.49 C 293.46 255.82 293.95 256.48 294.20 256.82 C 293.68 258.58 294.32 259.27 296.12 258.86 C 304.31 265.40 315.33 266.27 325.40 265.74 C 327.27 265.95 326.46 262.47 324.88 263.51 C 326.05 258.14 320.88 255.18 316.85 253.21 C 317.11 251.40 316.38 250.81 314.66 251.46 C 313.45 250.09 311.98 248.98 310.56 247.85 C 311.96 245.95 308.93 243.04 307.08 244.49 C 304.42 241.12 302.02 237.54 299.58 234.02 C 297.62 234.32 295.65 234.63 293.71 235.01 C 294.28 233.08 290.56 233.37 291.43 235.18 M 175.81 254.69 C 178.61 255.45 181.40 256.27 184.17 257.12 C 185.90 251.93 186.40 246.09 184.35 240.93 C 185.63 239.66 185.45 238.73 183.80 238.15 C 183.90 237.42 184.09 235.95 184.18 235.22 C 178.41 240.03 177.74 247.87 175.81 254.69 M 195.83 239.07 C 194.19 244.90 192.56 250.74 190.87 256.56 C 200.40 258.51 209.44 262.84 219.30 262.90 C 219.89 264.58 220.83 264.77 222.11 263.46 L 223.10 263.18 C 223.64 263.47 224.71 264.05 225.25 264.34 C 233.55 262.51 241.89 260.91 250.30 259.64 C 246.82 252.64 242.93 245.86 238.81 239.21 C 234.96 239.35 231.12 239.46 227.28 239.53 C 219.73 238.90 212.13 239.13 204.61 239.90 C 204.07 239.94 202.98 240.00 202.44 240.04 C 203.08 238.08 199.04 237.89 199.49 239.89 C 198.27 239.62 197.04 239.35 195.83 239.07 M 362.35 259.12 C 354.14 261.02 346.64 265.52 340.35 271.05 C 336.33 273.24 333.93 277.27 331.68 281.10 L 332.27 280.43 C 333.38 283.13 334.44 285.84 335.48 288.57 C 337.30 287.72 339.21 286.99 340.81 285.76 C 342.58 286.29 343.27 285.66 342.87 283.87 C 346.40 278.00 348.18 270.48 354.96 267.34 C 356.25 268.53 357.16 268.31 357.68 266.66 C 360.66 266.97 363.63 266.69 366.62 266.46 C 368.61 265.30 369.00 262.71 370.02 260.82 C 368.24 260.20 366.49 259.43 364.61 259.18 C 365.42 257.28 361.59 257.18 362.35 259.12 M 17.68 276.68 C 12.91 279.09 6.18 281.16 7.31 288.12 C 14.04 286.38 20.62 284.08 27.38 282.49 C 33.65 281.92 39.94 283.09 46.20 283.45 C 62.41 284.95 76.09 272.15 92.32 274.04 C 98.16 274.63 104.45 275.12 109.73 272.05 C 102.57 264.81 92.31 260.77 82.06 262.31 C 60.13 264.18 38.10 268.26 17.68 276.68 M 182.61 265.64 C 167.65 267.34 152.53 265.86 137.60 268.04 C 140.26 272.49 141.40 279.54 147.10 280.85 C 157.66 279.91 165.82 269.83 176.94 271.40 C 196.50 272.74 215.97 275.63 235.14 279.80 C 240.37 280.19 247.88 282.69 251.72 277.73 C 252.13 274.73 251.53 271.70 251.43 268.70 C 242.79 269.68 234.27 271.48 225.66 272.64 C 210.74 274.01 197.50 263.88 182.61 265.64 M 389.58 273.53 C 378.75 276.34 367.53 276.43 356.49 277.76 C 350.89 279.20 348.89 285.50 346.28 290.07 C 362.39 287.64 377.66 281.07 394.00 280.10 C 409.31 279.76 424.59 274.49 439.86 278.20 C 447.89 281.41 455.64 285.92 464.51 286.36 C 460.93 279.39 455.06 273.45 447.18 271.74 C 428.24 267.42 408.35 269.20 389.58 273.53 M 276.25 276.08 C 277.53 278.80 278.15 282.65 281.56 283.51 C 295.46 288.61 310.30 283.55 324.33 281.74 C 323.57 279.46 322.80 277.19 322.07 274.90 C 306.99 270.66 291.20 272.18 276.25 276.08 M 80.25 283.56 C 76.55 284.96 72.78 286.21 68.94 287.19 C 67.66 285.73 65.99 288.85 67.92 289.08 C 74.66 296.91 75.36 307.61 78.59 317.02 C 77.23 318.24 77.38 319.18 79.04 319.83 C 79.26 330.95 85.92 340.52 90.88 350.07 C 95.63 358.29 99.24 367.41 105.51 374.63 C 104.85 376.31 105.41 377.06 107.20 376.88 L 107.52 377.53 C 106.78 379.17 107.29 379.95 109.08 379.87 C 109.66 381.75 110.74 383.53 112.38 384.68 C 111.78 386.37 112.37 387.09 114.14 386.85 C 114.59 387.98 115.39 388.97 116.38 389.67 C 115.80 391.37 116.39 392.09 118.17 391.84 C 120.78 396.32 124.91 399.93 129.19 402.81 C 128.93 404.58 129.66 405.17 131.37 404.58 C 136.84 409.89 144.49 412.49 151.37 415.46 C 165.29 417.94 181.33 422.44 194.23 414.37 C 204.09 409.91 212.73 402.83 218.88 393.90 C 221.36 390.79 223.32 386.93 222.98 382.85 C 224.67 382.27 224.86 381.34 223.56 380.06 C 224.27 378.11 224.29 375.88 223.58 373.94 C 224.84 372.60 224.61 371.68 222.90 371.18 C 221.31 360.66 216.62 350.61 211.42 341.40 C 212.15 339.73 211.61 338.96 209.82 339.09 L 209.53 338.44 C 210.21 336.76 209.66 336.00 207.88 336.15 C 207.46 335.00 206.77 333.94 205.85 333.13 C 206.29 331.34 205.63 330.69 203.85 331.17 C 198.74 326.55 192.44 322.68 185.57 321.49 C 170.94 320.37 158.25 330.43 151.19 342.47 C 149.35 341.53 149.02 345.34 150.99 344.72 C 151.85 348.91 150.11 356.14 154.15 358.89 C 153.77 360.60 154.44 361.25 156.14 360.83 C 160.43 369.59 175.90 372.41 179.84 361.64 C 181.59 362.81 183.70 359.80 182.10 358.50 C 182.51 358.02 183.35 357.08 183.76 356.60 C 182.11 356.05 180.46 355.50 178.80 354.97 C 177.24 354.73 176.71 355.35 177.21 356.84 C 177.18 358.68 177.16 360.52 177.14 362.37 C 175.55 362.21 175.02 362.89 175.53 364.42 C 170.74 365.64 165.03 366.84 161.03 362.98 C 155.13 359.10 156.21 351.02 154.31 345.14 C 154.58 344.51 155.10 343.25 155.37 342.62 C 158.77 339.07 161.17 334.68 163.61 330.45 C 165.20 331.05 165.93 330.51 165.79 328.82 C 168.09 328.46 170.36 327.92 172.64 327.45 C 173.81 329.20 178.11 329.22 178.30 326.84 C 184.76 326.85 192.01 326.39 196.53 331.81 C 195.09 333.26 197.45 335.96 199.08 334.78 L 199.58 335.49 C 198.69 337.11 199.16 337.93 200.98 337.96 C 206.89 352.26 215.12 366.86 213.81 382.86 C 212.86 387.85 212.21 393.59 208.34 397.33 C 200.47 404.83 191.02 411.42 179.96 412.80 C 178.81 411.36 177.87 411.45 177.14 413.09 C 173.38 412.54 169.53 412.81 165.78 413.13 C 165.11 411.48 164.17 411.34 162.97 412.72 C 155.97 410.05 148.81 407.81 141.77 405.27 C 141.95 403.51 141.21 402.94 139.53 403.57 L 138.87 403.23 C 139.01 401.43 138.25 400.88 136.58 401.59 C 135.82 400.69 134.95 399.91 134.07 399.16 C 131.94 395.86 129.07 393.14 125.82 390.97 C 125.06 390.09 124.29 389.22 123.39 388.48 C 124.07 386.80 123.52 386.04 121.73 386.22 C 119.06 380.53 114.90 375.68 111.88 370.17 C 108.50 364.73 106.38 358.48 102.30 353.51 C 103.05 351.86 102.53 351.08 100.75 351.17 C 96.92 341.88 92.78 332.69 90.24 322.91 C 87.24 310.84 82.76 299.12 81.06 286.75 C 83.29 286.33 82.16 281.70 80.25 283.56 M 462.21 288.59 C 463.31 291.09 464.16 293.89 466.27 295.78 C 468.99 296.68 471.93 296.23 474.78 296.34 C 473.30 293.87 472.10 291.01 469.62 289.36 C 467.26 288.42 464.68 288.60 462.21 288.59 M 357.65 302.06 C 350.21 301.47 343.43 297.55 336.11 296.13 C 337.14 297.67 338.07 299.35 339.47 300.61 C 338.78 302.29 339.33 303.05 341.13 302.88 C 341.49 303.83 342.16 304.49 343.13 304.86 C 342.89 306.64 343.63 307.22 345.33 306.61 C 346.71 308.45 349.14 309.12 351.36 309.03 C 350.60 310.93 354.41 310.91 353.65 309.02 C 359.94 308.55 365.99 305.45 370.97 301.69 C 372.54 303.25 375.18 300.47 373.59 298.95 C 374.06 297.34 374.98 294.10 375.45 292.48 C 369.32 295.30 363.79 299.31 357.65 302.06 Z" />
<path fill="#020202" opacity="1.00" d=" M 426.44 83.55 C 429.49 82.30 432.74 81.68 435.92 80.86 C 436.42 81.10 437.41 81.57 437.90 81.80 C 438.35 84.47 439.00 87.13 439.15 89.84 C 439.15 93.29 439.24 96.77 439.01 100.22 L 438.45 100.95 C 437.49 102.06 436.49 103.17 435.90 104.53 C 435.67 105.00 435.21 105.94 434.97 106.41 C 430.57 106.06 424.88 106.06 422.04 101.95 C 421.70 101.01 421.10 100.30 420.22 99.82 C 418.85 98.77 417.67 97.50 416.45 96.29 C 419.06 92.67 421.16 88.58 424.39 85.45 C 425.33 85.09 426.01 84.46 426.44 83.55 Z" />
<path fill="#020202" opacity="1.00" d=" M 280.38 94.66 C 285.38 90.69 292.70 91.94 298.39 93.51 C 300.91 94.29 304.35 95.43 304.36 98.64 C 304.29 105.32 304.78 115.23 296.99 117.95 C 294.04 119.61 290.92 120.93 287.81 122.24 C 286.98 121.03 286.12 119.85 285.37 118.60 C 284.94 117.65 284.22 117.06 283.20 116.84 C 275.94 113.95 273.11 103.49 277.63 97.37 C 278.60 96.52 279.52 95.62 280.38 94.66 Z" />
</g>
<g id="#89dd7bff">
<path fill="#89dd7b" opacity="1.00" d=" M 271.30 37.28 C 270.88 35.54 271.54 34.88 273.29 35.30 C 272.92 36.26 272.26 36.92 271.30 37.28 Z" />
<path fill="#89dd7b" opacity="1.00" d=" M 353.42 56.73 C 354.63 55.99 355.70 56.19 356.65 57.31 C 355.44 57.98 354.36 57.79 353.42 56.73 Z" />
<path fill="#89dd7b" opacity="1.00" d=" M 135.23 97.38 C 148.43 90.08 162.99 84.92 177.83 82.22 C 178.46 82.16 179.72 82.05 180.34 81.99 C 181.99 81.97 185.29 81.94 186.94 81.93 C 188.34 82.00 189.75 82.04 191.15 82.03 C 193.24 82.05 195.33 82.29 197.35 82.79 C 197.92 82.88 199.05 83.07 199.61 83.16 C 211.76 84.91 223.31 89.47 234.46 94.44 C 237.93 95.99 241.54 98.25 242.75 102.08 C 245.75 111.73 247.85 121.63 250.06 131.48 C 247.55 134.37 245.07 137.28 242.59 140.19 C 246.94 147.38 250.77 155.18 256.97 161.01 C 261.61 165.50 268.56 165.82 273.81 169.30 C 278.43 173.15 281.98 178.04 285.39 182.94 C 276.20 181.61 266.22 182.05 258.13 176.80 C 250.71 171.76 244.68 164.32 235.82 161.64 C 232.93 160.61 229.55 160.78 227.03 158.97 C 222.84 154.39 219.30 149.26 215.31 144.51 C 215.30 148.29 215.34 152.08 215.51 155.86 C 210.68 156.89 205.87 157.98 201.06 159.07 C 202.97 153.87 204.88 148.67 206.77 143.46 C 202.06 146.09 197.53 149.01 192.96 151.87 C 190.67 149.77 188.38 147.68 186.05 145.64 C 181.66 147.25 177.36 149.28 172.76 150.20 C 165.62 150.65 158.47 148.65 151.33 149.41 C 144.25 150.54 137.29 152.29 130.45 154.40 C 127.87 152.72 125.34 150.96 122.71 149.36 C 125.46 145.91 127.77 142.01 131.13 139.10 C 135.84 138.74 140.30 140.67 144.91 140.95 C 149.93 138.67 154.73 135.92 159.72 133.58 C 161.31 129.68 162.93 125.80 164.52 121.90 C 169.50 123.70 174.38 126.57 179.81 126.47 C 187.32 124.25 193.88 119.64 200.83 116.13 C 209.80 122.43 219.50 127.77 229.94 131.20 C 227.66 127.87 225.38 124.55 223.11 121.22 C 227.40 118.55 231.97 115.38 233.21 110.12 C 233.51 106.72 232.66 103.33 231.88 100.04 C 226.68 101.50 221.42 103.46 215.93 103.11 C 206.01 101.54 196.53 98.14 186.95 95.25 C 181.40 93.75 175.65 91.71 169.83 93.06 C 165.13 94.70 160.81 97.25 156.38 99.48 C 156.15 98.48 155.92 97.49 155.69 96.49 C 149.65 101.51 142.38 105.03 137.13 110.94 C 133.33 120.22 132.05 130.73 125.98 138.97 C 126.27 131.47 126.71 123.98 126.85 116.48 C 120.46 123.15 115.04 130.69 110.85 138.93 C 106.56 147.33 99.79 154.23 96.08 162.93 C 95.04 168.31 95.15 173.86 95.11 179.33 C 91.29 178.44 87.49 177.50 83.71 176.45 C 90.55 157.49 98.67 138.77 110.37 122.27 C 111.23 121.75 111.81 121.02 112.11 120.07 C 112.64 118.99 113.30 117.97 114.19 117.15 C 115.11 116.77 115.79 116.13 116.23 115.24 C 117.17 114.84 117.81 114.15 118.15 113.19 C 120.26 109.95 123.01 107.06 126.31 105.00 C 127.47 104.35 128.47 103.47 129.38 102.51 C 130.21 101.93 130.75 101.16 131.00 100.18 C 131.48 99.88 132.44 99.27 132.92 98.97 C 133.89 98.73 134.66 98.20 135.23 97.38 Z" />
<path fill="#89dd7b" opacity="1.00" d=" M 454.04 82.18 L 454.49 82.17 C 455.59 84.02 455.77 86.84 454.57 88.67 L 454.03 88.66 C 454.03 87.04 454.04 83.80 454.04 82.18 Z" />
<path fill="#89dd7b" opacity="1.00" d=" M 355.04 92.24 L 355.17 92.65 C 355.70 95.72 356.74 99.19 355.36 102.16 L 355.02 102.65 C 355.07 99.18 355.04 95.70 355.04 92.24 Z" />
<path fill="#89dd7b" opacity="1.00" d=" M 420.22 99.82 C 421.10 100.30 421.70 101.01 422.04 101.95 C 420.24 102.27 419.63 101.56 420.22 99.82 Z" />
<path fill="#89dd7b" opacity="1.00" d=" M 169.59 103.33 C 170.77 102.23 172.61 104.26 171.39 105.33 C 170.21 106.46 168.45 104.39 169.59 103.33 Z" />
<path fill="#89dd7b" opacity="1.00" d=" M 153.10 112.31 C 155.30 110.03 157.52 107.78 159.90 105.69 C 157.70 107.96 155.48 110.22 153.10 112.31 Z" />
<path fill="#89dd7b" opacity="1.00" d=" M 161.15 109.40 C 165.14 108.58 160.29 113.38 161.15 109.40 Z" />
<path fill="#89dd7b" opacity="1.00" d=" M 171.13 112.11 C 172.44 112.78 172.43 113.46 171.11 114.14 C 169.81 113.47 169.82 112.79 171.13 112.11 Z" />
<path fill="#89dd7b" opacity="1.00" d=" M 164.15 113.40 C 168.14 112.58 163.29 117.38 164.15 113.40 Z" />
<path fill="#89dd7b" opacity="1.00" d=" M 169.13 115.11 C 170.44 115.78 170.43 116.46 169.11 117.14 C 167.81 116.47 167.82 115.79 169.13 115.11 Z" />
<path fill="#89dd7b" opacity="1.00" d=" M 119.66 150.64 C 120.10 149.09 120.96 148.58 122.24 149.10 C 121.88 150.30 121.02 150.82 119.66 150.64 Z" />
<path fill="#89dd7b" opacity="1.00" d=" M 115.13 153.39 C 116.03 152.03 117.26 150.58 119.07 150.70 C 118.92 152.69 116.82 153.36 115.13 153.39 Z" />
<path fill="#89dd7b" opacity="1.00" d=" M 110.30 159.22 C 111.55 157.24 113.12 155.51 114.73 153.83 C 113.19 155.57 111.68 157.35 110.30 159.22 Z" />
<path fill="#89dd7b" opacity="1.00" d=" M 395.83 154.61 C 397.76 153.21 400.76 156.24 399.38 158.17 C 398.11 157.07 396.92 155.88 395.83 154.61 Z" />
<path fill="#89dd7b" opacity="1.00" d=" M 311.25 163.33 C 313.03 163.31 314.84 163.32 316.68 163.36 C 315.78 165.51 312.23 165.32 311.25 163.33 Z" />
<path fill="#89dd7b" opacity="1.00" d=" M 344.63 165.57 C 343.79 164.10 344.19 163.26 345.84 163.07 C 346.02 164.15 345.62 164.98 344.63 165.57 Z" />
<path fill="#89dd7b" opacity="1.00" d=" M 394.89 180.37 C 400.65 179.28 406.41 178.13 412.16 176.93 C 414.46 181.45 415.79 186.36 416.18 191.43 C 415.13 191.10 414.29 191.44 413.66 192.44 C 412.81 192.98 412.21 193.73 411.86 194.67 C 402.39 203.14 389.74 206.87 377.93 210.82 C 369.61 212.68 361.38 215.89 352.77 215.93 C 351.75 215.75 350.82 215.96 349.99 216.57 C 349.50 216.57 348.51 216.57 348.01 216.58 C 347.16 215.99 346.23 215.79 345.22 215.98 C 339.16 216.06 333.96 212.33 328.69 209.79 C 340.48 201.01 355.44 199.06 369.80 200.62 C 369.58 198.01 369.43 195.45 369.24 192.86 C 375.12 190.27 381.03 187.75 386.87 185.07 C 390.15 189.89 393.43 194.73 396.75 199.53 C 398.03 196.70 400.88 193.75 399.57 190.44 C 398.33 186.95 396.46 183.71 394.89 180.37 Z" />
<path fill="#89dd7b" opacity="1.00" d=" M 100.22 182.27 C 101.00 180.65 102.56 179.57 104.32 179.29 C 104.22 181.39 102.19 182.62 100.22 182.27 Z" />
<path fill="#89dd7b" opacity="1.00" d=" M 81.77 182.41 C 87.30 182.22 92.83 182.31 98.36 182.29 C 93.05 182.37 87.74 182.46 82.43 182.41 L 81.77 182.41 Z" />
<path fill="#89dd7b" opacity="1.00" d=" M 176.48 185.17 C 190.72 194.70 204.50 205.28 220.33 212.11 C 202.45 217.73 183.75 212.10 165.69 210.30 C 167.66 210.40 171.60 210.58 173.57 210.68 C 177.32 202.65 176.77 193.78 176.48 185.17 Z" />
<path fill="#89dd7b" opacity="1.00" d=" M 125.98 194.28 C 127.01 193.95 127.86 194.29 128.53 195.30 C 127.15 196.22 126.30 195.88 125.98 194.28 Z" />
<path fill="#89dd7b" opacity="1.00" d=" M 111.46 204.48 C 115.23 201.30 118.98 198.07 123.11 195.36 C 119.36 199.04 115.66 202.82 111.40 205.93 C 110.00 206.83 108.80 208.03 108.08 209.54 C 107.43 210.65 106.79 211.78 106.01 212.81 C 104.28 214.54 102.47 216.19 100.60 217.76 C 99.67 218.18 99.06 218.89 98.78 219.88 C 98.46 220.36 97.83 221.32 97.51 221.80 C 96.59 222.71 95.74 223.69 95.04 224.78 C 94.29 225.81 93.46 226.80 92.45 227.59 C 91.53 228.06 90.97 228.80 90.76 229.81 C 89.57 233.02 88.06 236.12 86.56 239.20 C 85.90 240.19 85.64 241.36 85.74 242.54 C 85.65 244.50 85.47 248.40 85.38 250.35 C 84.80 250.22 83.65 249.96 83.08 249.83 C 81.86 249.67 80.64 249.87 79.49 250.25 C 77.41 250.65 73.26 251.46 71.19 251.86 C 70.48 249.35 69.74 246.86 69.13 244.34 C 76.77 233.67 83.93 222.63 89.88 210.92 C 92.76 206.03 95.07 199.85 101.01 197.94 C 105.95 194.84 108.28 201.90 111.46 204.48 Z" />
<path fill="#89dd7b" opacity="1.00" d=" M 290.92 205.70 C 291.25 204.31 292.05 203.85 293.33 204.30 C 293.05 205.68 292.24 206.14 290.92 205.70 Z" />
<path fill="#89dd7b" opacity="1.00" d=" M 271.63 207.83 C 271.87 206.31 272.66 205.93 273.98 206.69 C 273.60 207.90 272.81 208.28 271.63 207.83 Z" />
<path fill="#89dd7b" opacity="1.00" d=" M 287.58 209.73 C 287.96 208.49 288.83 207.91 290.17 208.00 C 289.85 209.50 288.99 210.08 287.58 209.73 Z" />
<path fill="#89dd7b" opacity="1.00" d=" M 161.80 210.85 C 158.26 209.74 161.84 207.44 163.25 210.09 C 162.89 210.28 162.16 210.66 161.80 210.85 Z" />
<path fill="#89dd7b" opacity="1.00" d=" M 162.64 211.24 C 165.84 212.69 168.95 214.32 172.09 215.90 C 168.91 214.40 165.79 212.78 162.64 211.24 Z" />
<path fill="#89dd7b" opacity="1.00" d=" M 229.82 215.53 C 230.72 214.51 231.82 214.14 233.13 214.41 L 233.43 215.03 C 232.59 216.22 230.97 216.14 229.82 215.53 Z" />
<path fill="#89dd7b" opacity="1.00" d=" M 283.43 217.67 C 283.16 216.28 283.77 215.41 285.27 215.08 C 285.31 216.47 284.69 217.33 283.43 217.67 Z" />
<path fill="#89dd7b" opacity="1.00" d=" M 183.84 220.41 C 185.11 219.66 186.25 219.80 187.29 220.84 C 186.03 221.51 184.88 221.37 183.84 220.41 Z" />
<path fill="#89dd7b" opacity="1.00" d=" M 188.19 220.73 C 189.74 220.23 190.66 220.65 190.96 221.99 C 189.73 222.36 188.81 221.94 188.19 220.73 Z" />
<path fill="#89dd7b" opacity="1.00" d=" M 270.74 221.25 C 272.03 221.76 272.81 223.47 271.89 224.67 L 271.17 224.60 C 270.61 223.55 270.47 222.43 270.74 221.25 Z" />
<path fill="#89dd7b" opacity="1.00" d=" M 188.14 226.57 C 188.32 224.77 189.66 223.50 190.97 222.41 C 191.35 224.24 190.38 226.85 188.14 226.57 Z" />
<path fill="#89dd7b" opacity="1.00" d=" M 144.97 227.30 C 145.68 225.95 148.59 226.45 148.20 228.14 C 147.13 228.18 146.09 228.07 145.07 227.82 L 144.97 227.30 Z" />
<path fill="#89dd7b" opacity="1.00" d=" M 163.92 232.97 C 164.40 233.31 165.36 233.98 165.84 234.31 C 165.81 236.06 165.74 239.55 165.71 241.30 C 165.09 238.52 164.51 235.74 163.92 232.97 Z" />
<path fill="#89dd7b" opacity="1.00" d=" M 279.90 235.33 C 281.12 234.10 281.94 234.26 282.34 235.82 C 281.77 235.88 280.62 236.00 280.05 236.06 L 279.90 235.33 Z" />
<path fill="#89dd7b" opacity="1.00" d=" M 199.49 239.89 C 199.04 237.89 203.08 238.08 202.44 240.04 C 201.44 240.19 200.46 240.14 199.49 239.89 Z" />
<path fill="#89dd7b" opacity="1.00" d=" M 376.77 254.42 C 378.55 254.74 379.97 256.07 380.24 257.90 C 378.45 257.55 377.13 256.18 376.77 254.42 Z" />
<path fill="#89dd7b" opacity="1.00" d=" M 223.10 263.18 C 224.01 262.42 226.13 262.81 225.25 264.34 C 224.71 264.05 223.64 263.47 223.10 263.18 Z" />
<path fill="#89dd7b" opacity="1.00" d=" M 102.91 289.28 C 105.68 289.43 108.43 289.61 111.20 289.90 C 108.44 289.63 105.68 289.43 102.91 289.28 Z" />
<path fill="#89dd7b" opacity="1.00" d=" M 42.93 292.86 C 43.47 291.62 45.98 291.14 45.70 293.06 C 45.01 293.01 43.62 292.91 42.93 292.86 Z" />
<path fill="#89dd7b" opacity="1.00" d=" M 313.35 292.95 C 313.83 291.66 314.77 291.33 316.17 291.97 L 316.14 292.63 C 315.44 292.71 314.04 292.87 313.35 292.95 Z" />
<path fill="#89dd7b" opacity="1.00" d=" M 378.12 309.46 C 378.56 307.87 379.51 306.01 381.43 306.08 C 381.45 307.96 379.65 308.91 378.12 309.46 Z" />
<path fill="#89dd7b" opacity="1.00" d=" M 151.75 367.03 C 153.24 367.47 153.80 368.38 153.42 369.76 C 152.19 369.30 151.64 368.39 151.75 367.03 Z" />
<path fill="#89dd7b" opacity="1.00" d=" M 198.78 396.85 C 199.01 395.11 200.63 393.90 202.36 394.17 C 201.92 395.77 200.42 396.83 198.78 396.85 Z" />
<path fill="#89dd7b" opacity="1.00" d=" M 174.00 403.86 C 174.51 403.38 175.54 402.41 176.06 401.93 C 177.28 402.41 179.74 403.37 180.97 403.84 C 179.22 403.85 175.74 403.86 174.00 403.86 Z" />
<path fill="#89dd7b" opacity="1.00" d=" M 175.78 426.85 C 176.21 425.30 178.35 425.27 178.77 426.85 C 178.02 426.85 176.53 426.85 175.78 426.85 Z" />
</g>
<g id="#a9f27fff">
<path fill="#a9f27f" opacity="1.00" d=" M 356.65 57.31 C 357.81 57.95 358.22 58.87 357.88 60.05 C 356.47 59.72 356.06 58.81 356.65 57.31 Z" />
<path fill="#a9f27f" opacity="1.00" d=" M 182.04 68.45 C 183.15 67.47 185.80 67.11 185.73 69.23 C 184.43 69.35 183.20 69.09 182.04 68.45 Z" />
<path fill="#a9f27f" opacity="1.00" d=" M 254.43 83.72 L 255.10 83.64 C 255.33 84.69 255.13 85.66 254.50 86.54 C 254.49 85.83 254.45 84.43 254.43 83.72 Z" />
<path fill="#a9f27f" opacity="1.00" d=" M 254.55 90.87 C 254.67 92.12 254.91 94.62 255.03 95.87 L 254.40 95.83 C 252.79 94.79 252.77 91.70 254.55 90.87 Z" />
<path fill="#a9f27f" opacity="1.00" d=" M 242.59 140.19 C 245.07 137.28 247.55 134.37 250.06 131.48 C 252.54 138.14 255.79 144.48 259.52 150.52 C 259.89 151.47 260.56 152.11 261.55 152.45 C 262.02 153.35 262.76 153.93 263.75 154.19 C 264.25 154.47 265.27 155.01 265.77 155.28 C 266.22 156.17 266.91 156.80 267.85 157.16 C 268.89 157.77 269.86 158.51 270.71 159.38 C 271.16 160.28 271.85 160.90 272.79 161.25 C 283.88 168.33 295.55 175.74 309.00 176.96 C 312.25 176.97 315.56 177.00 318.82 176.78 C 325.29 176.32 331.41 174.06 337.23 171.34 C 338.19 171.06 338.91 170.47 339.38 169.57 C 339.90 169.19 340.92 168.43 341.43 168.05 C 342.60 167.37 343.67 166.52 344.63 165.57 C 345.62 164.98 346.02 164.15 345.84 163.07 L 345.69 161.68 C 346.78 162.06 347.57 161.70 348.04 160.60 C 350.30 156.97 352.38 153.18 355.20 149.95 C 356.02 149.17 356.64 148.21 357.07 147.16 C 357.37 146.68 357.96 145.72 358.26 145.23 C 359.13 144.76 359.75 144.06 360.12 143.14 C 360.90 142.29 361.83 141.63 362.89 141.16 C 363.87 141.15 364.86 141.10 365.86 141.04 C 366.45 141.08 367.63 141.17 368.22 141.21 C 377.06 142.78 385.34 147.10 392.83 151.90 C 393.25 152.25 394.10 152.95 394.53 153.30 C 394.85 153.63 395.50 154.29 395.83 154.61 C 396.92 155.88 398.11 157.07 399.38 158.17 C 399.68 158.47 400.27 159.07 400.57 159.37 C 401.06 160.23 401.78 160.83 402.72 161.17 C 406.15 166.25 409.09 171.63 412.16 176.93 C 406.41 178.13 400.65 179.28 394.89 180.37 C 396.46 183.71 398.33 186.95 399.57 190.44 C 400.88 193.75 398.03 196.70 396.75 199.53 C 393.43 194.73 390.15 189.89 386.87 185.07 C 381.03 187.75 375.12 190.27 369.24 192.86 C 369.43 195.45 369.58 198.01 369.80 200.62 C 355.44 199.06 340.48 201.01 328.69 209.79 C 325.11 212.05 321.38 214.06 317.67 216.09 C 309.72 211.84 301.76 207.53 293.33 204.30 C 292.05 203.85 291.25 204.31 290.92 205.70 C 290.73 206.28 290.36 207.43 290.17 208.00 C 288.83 207.91 287.96 208.49 287.58 209.73 C 286.86 211.53 286.07 213.31 285.27 215.08 C 283.77 215.41 283.16 216.28 283.43 217.67 C 282.72 217.88 282.01 218.09 281.31 218.31 C 279.53 214.11 278.16 209.19 273.98 206.69 C 272.66 205.93 271.87 206.31 271.63 207.83 C 271.28 212.29 271.08 216.78 270.74 221.25 C 270.47 222.43 270.61 223.55 271.17 224.60 C 270.82 224.65 270.14 224.76 269.80 224.81 C 266.48 225.04 263.19 224.76 259.90 224.51 C 261.95 216.39 264.09 208.24 264.93 199.89 L 263.33 199.90 C 261.07 199.23 259.21 199.48 257.75 200.65 C 251.37 210.25 253.50 222.76 249.61 233.17 C 248.69 234.48 247.70 235.75 246.72 237.03 C 245.85 233.13 245.02 229.19 244.72 225.20 C 244.62 222.03 244.61 218.90 244.68 215.74 C 244.74 214.26 244.88 212.78 244.99 211.31 C 245.20 208.41 245.45 205.55 245.63 202.66 L 245.70 201.43 C 242.60 202.70 239.60 204.18 236.61 205.67 C 235.60 206.04 235.05 206.76 234.97 207.85 C 234.49 210.07 233.80 212.24 233.13 214.41 C 231.82 214.14 230.72 214.51 229.82 215.53 C 226.65 214.40 223.45 213.37 220.33 212.11 C 204.50 205.28 190.72 194.70 176.48 185.17 C 176.77 193.78 177.32 202.65 173.57 210.68 C 171.60 210.58 167.66 210.40 165.69 210.30 C 165.08 210.25 163.86 210.14 163.25 210.09 C 161.84 207.44 158.26 209.74 161.80 210.85 L 162.64 211.24 C 165.79 212.78 168.91 214.40 172.09 215.90 C 175.87 217.76 179.86 219.10 183.84 220.41 C 184.88 221.37 186.03 221.51 187.29 220.84 L 188.19 220.73 C 188.81 221.94 189.73 222.36 190.96 221.99 C 190.96 222.09 190.97 222.30 190.97 222.41 C 189.66 223.50 188.32 224.77 188.14 226.57 C 187.74 226.56 186.96 226.53 186.57 226.52 C 174.96 225.02 163.75 221.49 152.68 217.79 C 152.76 216.85 152.94 214.98 153.03 214.05 C 153.18 212.75 153.27 211.45 153.33 210.15 C 153.66 208.99 153.38 208.06 152.50 207.38 C 149.88 204.96 146.39 204.06 143.07 203.05 C 139.23 201.97 135.34 201.06 131.46 200.13 C 131.72 199.10 131.38 198.25 130.44 197.58 C 130.06 196.60 129.42 195.84 128.53 195.30 C 127.86 194.29 127.01 193.95 125.98 194.28 C 125.00 194.58 124.04 194.94 123.11 195.36 C 118.98 198.07 115.23 201.30 111.46 204.48 C 108.28 201.90 105.95 194.84 101.01 197.94 C 95.07 199.85 92.76 206.03 89.88 210.92 C 83.93 222.63 76.77 233.67 69.13 244.34 C 68.88 243.01 68.69 241.68 68.55 240.35 C 68.63 236.39 68.79 232.46 69.08 228.52 C 69.08 227.96 69.08 226.85 69.08 226.30 C 71.88 211.24 78.41 197.17 82.43 182.41 C 87.74 182.46 93.05 182.37 98.36 182.29 C 98.83 182.28 99.76 182.28 100.22 182.27 C 102.19 182.62 104.22 181.39 104.32 179.29 C 106.24 172.59 107.04 165.44 110.30 159.22 C 111.68 157.35 113.19 155.57 114.73 153.83 L 115.13 153.39 C 116.82 153.36 118.92 152.69 119.07 150.70 L 119.66 150.64 C 121.02 150.82 121.88 150.30 122.24 149.10 L 122.71 149.36 C 125.34 150.96 127.87 152.72 130.45 154.40 C 137.29 152.29 144.25 150.54 151.33 149.41 C 158.47 148.65 165.62 150.65 172.76 150.20 C 177.36 149.28 181.66 147.25 186.05 145.64 C 188.38 147.68 190.67 149.77 192.96 151.87 C 197.53 149.01 202.06 146.09 206.77 143.46 C 204.88 148.67 202.97 153.87 201.06 159.07 C 205.87 157.98 210.68 156.89 215.51 155.86 C 215.34 152.08 215.30 148.29 215.31 144.51 C 219.30 149.26 222.84 154.39 227.03 158.97 C 229.55 160.78 232.93 160.61 235.82 161.64 C 244.68 164.32 250.71 171.76 258.13 176.80 C 266.22 182.05 276.20 181.61 285.39 182.94 C 281.98 178.04 278.43 173.15 273.81 169.30 C 268.56 165.82 261.61 165.50 256.97 161.01 C 250.77 155.18 246.94 147.38 242.59 140.19 Z" />
<path fill="#a9f27f" opacity="1.00" d=" M 290.88 254.28 C 291.96 254.00 292.73 254.40 293.21 255.49 C 291.79 256.31 291.01 255.91 290.88 254.28 Z" />
<path fill="#a9f27f" opacity="1.00" d=" M 272.21 256.93 C 272.50 255.50 274.16 255.49 274.87 256.59 C 274.20 256.67 272.87 256.84 272.21 256.93 Z" />
<path fill="#a9f27f" opacity="1.00" d=" M 380.24 257.90 C 381.63 258.02 382.41 258.78 382.59 260.19 C 381.16 260.08 380.37 259.32 380.24 257.90 Z" />
<path fill="#a9f27f" opacity="1.00" d=" M 445.25 292.54 C 446.58 292.20 447.49 292.73 447.98 294.15 C 446.54 294.35 445.63 293.81 445.25 292.54 Z" />
<path fill="#a9f27f" opacity="1.00" d=" M 211.11 320.52 C 212.88 320.91 213.82 322.53 214.22 324.18 C 212.60 323.66 210.84 322.46 211.11 320.52 Z" />
<path fill="#a9f27f" opacity="1.00" d=" M 188.44 367.45 C 188.29 365.81 189.29 364.18 190.96 363.84 C 191.49 365.57 189.90 366.91 188.44 367.45 Z" />
</g>
<g id="#62c771ff">
<path fill="#62c771" opacity="1.00" d=" M 180.31 81.45 C 182.17 80.15 185.03 80.49 186.94 81.55 L 186.94 81.93 C 185.29 81.94 181.99 81.97 180.34 81.99 L 180.31 81.45 Z" />
<path fill="#62c771" opacity="1.00" d=" M 464.93 83.43 C 465.48 83.77 466.57 84.44 467.11 84.77 C 466.71 86.02 465.91 88.53 465.51 89.78 C 465.37 88.19 465.08 85.02 464.93 83.43 Z" />
<path fill="#62c771" opacity="1.00" d=" M 169.83 93.06 C 175.65 91.71 181.40 93.75 186.95 95.25 C 196.53 98.14 206.01 101.54 215.93 103.11 C 221.42 103.46 226.68 101.50 231.88 100.04 C 232.66 103.33 233.51 106.72 233.21 110.12 C 231.97 115.38 227.40 118.55 223.11 121.22 C 225.38 124.55 227.66 127.87 229.94 131.20 C 219.50 127.77 209.80 122.43 200.83 116.13 C 193.88 119.64 187.32 124.25 179.81 126.47 C 174.38 126.57 169.50 123.70 164.52 121.90 C 162.93 125.80 161.31 129.68 159.72 133.58 C 154.73 135.92 149.93 138.67 144.91 140.95 C 140.30 140.67 135.84 138.74 131.13 139.10 C 127.77 142.01 125.46 145.91 122.71 149.36 L 122.24 149.10 C 120.96 148.58 120.10 149.09 119.66 150.64 L 119.07 150.70 C 117.26 150.58 116.03 152.03 115.13 153.39 L 114.73 153.83 C 113.12 155.51 111.55 157.24 110.30 159.22 C 107.04 165.44 106.24 172.59 104.32 179.29 C 102.56 179.57 101.00 180.65 100.22 182.27 C 99.76 182.28 98.83 182.28 98.36 182.29 C 92.83 182.31 87.30 182.22 81.77 182.41 C 82.24 180.37 82.71 178.34 83.15 176.30 L 83.71 176.45 C 87.49 177.50 91.29 178.44 95.11 179.33 C 95.15 173.86 95.04 168.31 96.08 162.93 C 99.79 154.23 106.56 147.33 110.85 138.93 C 115.04 130.69 120.46 123.15 126.85 116.48 C 126.71 123.98 126.27 131.47 125.98 138.97 C 132.05 130.73 133.33 120.22 137.13 110.94 C 142.38 105.03 149.65 101.51 155.69 96.49 C 155.92 97.49 156.15 98.48 156.38 99.48 C 160.81 97.25 165.13 94.70 169.83 93.06 M 169.59 103.33 C 168.45 104.39 170.21 106.46 171.39 105.33 C 172.61 104.26 170.77 102.23 169.59 103.33 M 153.10 112.31 C 155.48 110.22 157.70 107.96 159.90 105.69 C 157.52 107.78 155.30 110.03 153.10 112.31 M 161.15 109.40 C 160.29 113.38 165.14 108.58 161.15 109.40 M 171.13 112.11 C 169.82 112.79 169.81 113.47 171.11 114.14 C 172.43 113.46 172.44 112.78 171.13 112.11 M 164.15 113.40 C 163.29 117.38 168.14 112.58 164.15 113.40 M 169.13 115.11 C 167.82 115.79 167.81 116.47 169.11 117.14 C 170.43 116.46 170.44 115.78 169.13 115.11 Z" />
<path fill="#62c771" opacity="1.00" d=" M 126.31 105.00 C 125.08 103.31 127.95 101.07 129.38 102.51 C 128.47 103.47 127.47 104.35 126.31 105.00 Z" />
<path fill="#62c771" opacity="1.00" d=" M 116.23 115.24 C 115.75 113.50 116.39 112.81 118.15 113.19 C 117.81 114.15 117.17 114.84 116.23 115.24 Z" />
<path fill="#62c771" opacity="1.00" d=" M 434.81 135.81 C 435.14 134.84 435.77 134.16 436.72 133.75 C 437.20 135.48 436.57 136.17 434.81 135.81 Z" />
<path fill="#62c771" opacity="1.00" d=" M 362.89 141.16 C 362.29 139.50 365.27 138.87 365.86 140.36 L 365.86 141.04 C 364.86 141.10 363.87 141.15 362.89 141.16 Z" />
<path fill="#62c771" opacity="1.00" d=" M 261.55 152.45 C 263.25 151.83 263.98 152.41 263.75 154.19 C 262.76 153.93 262.02 153.35 261.55 152.45 Z" />
<path fill="#62c771" opacity="1.00" d=" M 341.43 168.05 C 340.27 166.30 343.19 164.17 344.63 165.57 C 343.67 166.52 342.60 167.37 341.43 168.05 Z" />
<path fill="#62c771" opacity="1.00" d=" M 413.66 192.44 C 414.29 191.44 415.13 191.10 416.18 191.43 C 415.88 193.04 415.04 193.38 413.66 192.44 Z" />
<path fill="#62c771" opacity="1.00" d=" M 128.53 195.30 C 129.42 195.84 130.06 196.60 130.44 197.58 C 128.64 197.80 128.00 197.04 128.53 195.30 Z" />
<path fill="#62c771" opacity="1.00" d=" M 131.46 200.13 C 135.34 201.06 139.23 201.97 143.07 203.05 C 140.08 211.37 137.82 219.98 134.28 228.08 C 133.61 228.92 133.43 229.84 133.73 230.84 C 134.42 237.04 137.06 242.65 139.69 248.20 C 139.90 249.18 140.44 249.95 141.29 250.51 C 142.24 251.74 142.95 253.13 143.72 254.49 C 137.49 258.20 131.31 261.97 124.95 265.46 C 128.06 272.87 131.42 280.16 134.81 287.45 C 131.59 285.63 128.04 284.15 125.34 281.60 C 124.87 280.68 124.14 280.10 123.15 279.85 C 121.00 278.85 119.08 277.18 118.00 275.07 C 117.76 274.10 117.25 273.31 116.46 272.72 C 115.67 271.80 115.03 270.78 114.38 269.78 C 120.59 264.19 126.44 258.20 131.85 251.83 C 126.58 241.45 124.06 229.67 125.07 218.03 C 125.55 211.56 128.85 205.90 131.46 200.13 Z" />
<path fill="#62c771" opacity="1.00" d=" M 293.33 204.30 C 301.76 207.53 309.72 211.84 317.67 216.09 C 308.78 220.26 299.50 224.79 289.53 224.98 C 288.14 224.92 286.77 225.08 285.42 225.37 C 281.51 225.74 277.39 226.73 273.54 225.46 C 273.12 225.26 272.30 224.87 271.89 224.67 C 272.81 223.47 272.03 221.76 270.74 221.25 C 271.08 216.78 271.28 212.29 271.63 207.83 C 272.81 208.28 273.60 207.90 273.98 206.69 C 278.16 209.19 279.53 214.11 281.31 218.31 C 282.01 218.09 282.72 217.88 283.43 217.67 C 284.69 217.33 285.31 216.47 285.27 215.08 C 286.07 213.31 286.86 211.53 287.58 209.73 C 288.99 210.08 289.85 209.50 290.17 208.00 C 290.36 207.43 290.73 206.28 290.92 205.70 C 292.24 206.14 293.05 205.68 293.33 204.30 Z" />
<path fill="#62c771" opacity="1.00" d=" M 108.08 209.54 C 108.80 208.03 110.00 206.83 111.40 205.93 C 112.65 207.71 109.94 210.69 108.08 209.54 Z" />
<path fill="#62c771" opacity="1.00" d=" M 152.50 207.38 C 153.38 208.06 153.66 208.99 153.33 210.15 L 152.69 210.09 C 152.64 209.41 152.55 208.06 152.50 207.38 Z" />
<path fill="#62c771" opacity="1.00" d=" M 161.80 210.85 C 162.16 210.66 162.89 210.28 163.25 210.09 C 163.86 210.14 165.08 210.25 165.69 210.30 C 183.75 212.10 202.45 217.73 220.33 212.11 C 223.45 213.37 226.65 214.40 229.82 215.53 C 230.97 216.14 232.59 216.22 233.43 215.03 C 233.16 215.55 232.63 216.57 232.36 217.09 C 231.41 218.20 231.61 219.70 232.38 220.85 C 232.32 221.45 232.22 222.67 232.16 223.28 C 231.90 224.42 231.58 225.74 232.32 226.80 C 231.69 226.76 230.43 226.70 229.80 226.66 C 228.78 226.50 227.87 226.76 227.09 227.47 C 225.73 228.00 224.31 228.17 222.85 227.99 C 221.85 227.76 220.91 227.92 220.05 228.47 C 218.50 229.04 216.85 229.24 215.22 229.36 C 209.71 229.35 204.22 229.43 198.72 229.28 C 194.51 229.16 190.41 228.20 186.57 226.52 C 186.96 226.53 187.74 226.56 188.14 226.57 C 190.38 226.85 191.35 224.24 190.97 222.41 C 190.97 222.30 190.96 222.09 190.96 221.99 C 190.66 220.65 189.74 220.23 188.19 220.73 L 187.29 220.84 C 186.25 219.80 185.11 219.66 183.84 220.41 C 179.86 219.10 175.87 217.76 172.09 215.90 C 168.95 214.32 165.84 212.69 162.64 211.24 L 161.80 210.85 Z" />
<path fill="#62c771" opacity="1.00" d=" M 98.78 219.88 C 99.06 218.89 99.67 218.18 100.60 217.76 C 101.15 219.46 100.54 220.17 98.78 219.88 Z" />
<path fill="#62c771" opacity="1.00" d=" M 314.20 229.91 C 315.08 228.94 315.97 227.98 316.87 227.04 C 319.11 229.09 322.27 230.43 323.87 233.13 C 324.12 234.11 324.69 234.85 325.57 235.36 C 329.43 240.39 331.18 246.73 333.77 252.48 C 323.83 248.46 315.06 240.92 311.70 230.48 C 312.68 231.08 313.52 230.89 314.20 229.91 Z" />
<path fill="#62c771" opacity="1.00" d=" M 68.51 228.94 L 69.08 228.52 C 68.79 232.46 68.63 236.39 68.55 240.35 L 68.47 239.59 C 68.22 236.06 67.54 232.42 68.51 228.94 Z" />
<path fill="#62c771" opacity="1.00" d=" M 246.72 237.03 C 247.70 235.75 248.69 234.48 249.61 233.17 C 253.64 239.07 254.85 246.31 257.26 252.92 C 258.88 256.56 262.10 259.43 265.70 261.03 C 270.32 261.67 275.01 261.87 279.68 262.15 C 280.89 262.26 282.11 262.24 283.33 262.09 C 284.24 262.01 286.07 261.84 286.98 261.76 C 286.96 262.52 286.92 264.05 286.91 264.81 C 281.88 265.23 276.91 266.13 271.95 267.05 C 270.80 267.12 270.18 267.74 270.09 268.90 C 267.55 277.56 266.56 286.85 270.92 295.13 C 267.63 294.02 264.33 292.93 261.04 291.84 C 260.26 282.48 264.01 271.85 258.79 263.26 C 253.99 254.91 249.49 246.29 246.72 237.03 Z" />
<path fill="#62c771" opacity="1.00" d=" M 277.34 235.57 C 277.98 235.51 279.26 235.39 279.90 235.33 L 280.05 236.06 C 279.48 236.08 278.34 236.11 277.77 236.13 L 277.34 235.57 Z" />
<path fill="#62c771" opacity="1.00" d=" M 175.81 254.69 C 177.74 247.87 178.41 240.03 184.18 235.22 C 184.09 235.95 183.90 237.42 183.80 238.15 C 183.54 239.15 183.72 240.08 184.35 240.93 C 186.40 246.09 185.90 251.93 184.17 257.12 C 181.40 256.27 178.61 255.45 175.81 254.69 Z" />
<path fill="#62c771" opacity="1.00" d=" M 79.49 250.25 C 80.64 249.87 81.86 249.67 83.08 249.83 L 82.95 250.53 C 81.65 251.72 80.50 251.62 79.49 250.25 Z" />
<path fill="#62c771" opacity="1.00" d=" M 340.35 271.05 C 346.64 265.52 354.14 261.02 362.35 259.12 C 362.92 259.14 364.05 259.17 364.61 259.18 C 366.49 259.43 368.24 260.20 370.02 260.82 C 369.00 262.71 368.61 265.30 366.62 266.46 C 363.63 266.69 360.66 266.97 357.68 266.66 C 356.64 266.39 355.73 266.62 354.96 267.34 C 348.18 270.48 346.40 278.00 342.87 283.87 C 341.95 284.24 341.26 284.87 340.81 285.76 C 339.21 286.99 337.30 287.72 335.48 288.57 C 334.44 285.84 333.38 283.13 332.27 280.43 C 335.00 277.34 337.64 274.16 340.35 271.05 Z" />
<path fill="#62c771" opacity="1.00" d=" M 68.94 287.19 C 72.78 286.21 76.55 284.96 80.25 283.56 C 80.44 284.64 80.76 285.69 81.06 286.75 C 82.76 299.12 87.24 310.84 90.24 322.91 C 92.78 332.69 96.92 341.88 100.75 351.17 C 100.91 352.17 101.43 352.95 102.30 353.51 C 106.38 358.48 108.50 364.73 111.88 370.17 C 114.90 375.68 119.06 380.53 121.73 386.22 C 121.95 387.21 122.51 387.96 123.39 388.48 C 124.29 389.22 125.06 390.09 125.82 390.97 C 128.25 394.01 131.04 396.72 134.07 399.16 C 134.95 399.91 135.82 400.69 136.58 401.59 C 137.11 402.45 137.87 403.00 138.87 403.23 L 139.53 403.57 C 140.00 404.50 140.75 405.07 141.77 405.27 C 148.81 407.81 155.97 410.05 162.97 412.72 C 163.85 413.26 164.78 413.39 165.78 413.13 C 169.53 412.81 173.38 412.54 177.14 413.09 C 178.11 413.37 179.06 413.27 179.96 412.80 C 191.02 411.42 200.47 404.83 208.34 397.33 C 212.21 393.59 212.86 387.85 213.81 382.86 C 215.12 366.86 206.89 352.26 200.98 337.96 C 200.82 336.96 200.36 336.14 199.58 335.49 L 199.08 334.78 C 198.41 333.64 197.60 332.59 196.53 331.81 C 192.01 326.39 184.76 326.85 178.30 326.84 C 176.38 326.82 174.49 327.03 172.64 327.45 C 170.36 327.92 168.09 328.46 165.79 328.82 C 164.70 328.87 163.97 329.41 163.61 330.45 C 161.17 334.68 158.77 339.07 155.37 342.62 C 154.01 342.69 153.43 344.11 154.31 345.14 C 156.21 351.02 155.13 359.10 161.03 362.98 C 165.03 366.84 170.74 365.64 175.53 364.42 C 176.71 364.24 177.24 363.55 177.14 362.37 C 177.16 360.52 177.18 358.68 177.21 356.84 C 178.45 356.82 178.98 356.19 178.80 354.97 C 180.46 355.50 182.11 356.05 183.76 356.60 C 183.35 357.08 182.51 358.02 182.10 358.50 C 181.17 359.41 180.44 360.49 179.84 361.64 C 175.90 372.41 160.43 369.59 156.14 360.83 C 155.82 359.82 155.16 359.18 154.15 358.89 C 150.11 356.14 151.85 348.91 150.99 344.72 C 151.04 344.16 151.14 343.03 151.19 342.47 C 158.25 330.43 170.94 320.37 185.57 321.49 C 192.44 322.68 198.74 326.55 203.85 331.17 C 204.27 332.07 204.94 332.72 205.85 333.13 C 206.77 333.94 207.46 335.00 207.88 336.15 C 208.09 337.15 208.64 337.91 209.53 338.44 L 209.82 339.09 C 210.02 340.08 210.56 340.85 211.42 341.40 C 216.62 350.61 221.31 360.66 222.90 371.18 C 222.75 372.18 222.98 373.10 223.58 373.94 C 224.29 375.88 224.27 378.11 223.56 380.06 C 222.97 380.90 222.78 381.83 222.98 382.85 C 223.32 386.93 221.36 390.79 218.88 393.90 C 212.73 402.83 204.09 409.91 194.23 414.37 C 181.33 422.44 165.29 417.94 151.37 415.46 C 144.49 412.49 136.84 409.89 131.37 404.58 C 130.89 403.67 130.17 403.08 129.19 402.81 C 124.91 399.93 120.78 396.32 118.17 391.84 C 117.90 390.84 117.30 390.12 116.38 389.67 C 115.39 388.97 114.59 387.98 114.14 386.85 C 113.89 385.85 113.30 385.13 112.38 384.68 C 110.74 383.53 109.66 381.75 109.08 379.87 C 108.91 378.86 108.39 378.08 107.52 377.53 L 107.20 376.88 C 106.96 375.88 106.40 375.13 105.51 374.63 C 99.24 367.41 95.63 358.29 90.88 350.07 C 85.92 340.52 79.26 330.95 79.04 319.83 C 79.28 318.83 79.13 317.89 78.59 317.02 C 75.36 307.61 74.66 296.91 67.92 289.08 C 68.18 288.61 68.69 287.66 68.94 287.19 Z" />
<path fill="#62c771" opacity="1.00" d=" M 316.17 291.97 C 317.67 291.66 319.23 291.54 320.75 291.91 L 320.54 292.54 C 319.18 293.36 317.56 293.05 316.14 292.63 L 316.17 291.97 Z" />
<path fill="#62c771" opacity="1.00" d=" M 357.65 302.06 C 363.79 299.31 369.32 295.30 375.45 292.48 C 374.98 294.10 374.06 297.34 373.59 298.95 C 372.67 299.82 371.79 300.73 370.97 301.69 C 365.99 305.45 359.94 308.55 353.65 309.02 C 353.07 309.02 351.93 309.03 351.36 309.03 C 349.14 309.12 346.71 308.45 345.33 306.61 C 344.85 305.70 344.11 305.12 343.13 304.86 C 342.16 304.49 341.49 303.83 341.13 302.88 C 340.89 301.89 340.34 301.13 339.47 300.61 C 338.07 299.35 337.14 297.67 336.11 296.13 C 343.43 297.55 350.21 301.47 357.65 302.06 Z" />
<path fill="#62c771" opacity="1.00" d=" M 233.32 383.16 L 233.94 383.11 C 233.89 384.53 233.78 387.38 233.72 388.80 C 232.13 387.30 232.25 384.92 233.32 383.16 Z" />
</g>
</svg>
